<svg id="e0c1ea27-b4e7-4ca1-b144-c0c936b4df46"  xmlns="http://www.w3.org/2000/svg" xmlns:xlink="http://www.w3.org/1999/xlink" viewBox="310 380 310 310">



<path d="M563.21,706.78c2.92-4,7.93-6.8,12.73-5.71s9.35,5.66,13.63,3.37c4.68-2.5,2.95-10.39,7-13.84,3.13-2.68,7.87-1.3,11.76.05s8.9,2.27,11.55-.88c1.81-2.16,1.69-5.45,3.41-7.69,2-2.6,5.82-2.93,9.06-2.43,1.73.27,12.39,12.56,20.64,8.47-13.35-11.36-6-33.12-5-36.21l11.88-35.3A60.39,60.39,0,0,0,622,540.34h0a60.39,60.39,0,0,0-76.27,37.87L527,633.73a60.41,60.41,0,0,0,34.83,75.15A20.78,20.78,0,0,1,563.21,706.78Z" transform="translate(-180 -86.57)" fill="#fff"/>

<circle cx="585.35" cy="572.65" r="6.51" transform="translate(-324.07 858.26) rotate(-71.4)" opacity="0.2"/>
<circle cx="622.37" cy="585.11" r="6.51" transform="translate(-310.66 901.83) rotate(-71.4)" opacity="0.2"/>
<ellipse cx="595.55" cy="603.56" rx="9.76" ry="6.51" transform="translate(-346.41 888.98) rotate(-71.4)" fill="#e0e0e0"/>
<circle cx="732.53" cy="574.09" r="9.76" transform="translate(-225.19 998.74) rotate(-71.4)" fill="#fff"/>
<circle cx="763.45" cy="558.74" r="4.88" transform="translate(-189.58 1017.58) rotate(-71.4)" fill="#fff"/>
</svg>
