<svg height="197" viewBox="0 0 1024 197" width="1024" xmlns="http://www.w3.org/2000/svg"><g fill="none" fill-rule="evenodd"><g transform="translate(910 32)"><path d="m6.986 32.5s-1.247 11.111-1.414 14.611c-.166 3.5-.083 6.666 0 8.083.084 1.417-1.948 4.695-.166 6.667 2.334 2.583 4.5.582 4-2.834s.417-5.5.584-7.5c.166-2-.084-19.416-.084-19.416z" class="fill-pink-lightest"/><path d="m22.273 89.894c-9.498-1.05-18.966 1.73-21.146 6.205-2.18 4.478 3.75 8.956 13.25 10.002 9.496 1.05 18.967-1.728 21.146-6.205 2.18-4.479-3.752-8.954-13.25-10.002" fill="#77b4b2"/><path d="m22.344 96.143c-.783.577-6.088 1.897-5.567 4.87.522 2.97 10.932-.355 10.696-3.715-.174-2.476-4.348-1.733-5.129-1.155" fill="#50403f"/><path d="m19.408 91.431c-.643.728-5.56 3.119-4.433 5.918 1.127 2.798 10.621-2.616 9.693-5.853-.684-2.387-4.613-.794-5.26-.065" fill="#2c2423"/><path d="m10.445 56.5s-1.196 9.447 1.416 18.5c2.461 8.528 7.539 17.231 8.383 17.434 1.738.42 4.389-.678 4.389-.678l-5.272-18.256-.381-18.249z" fill="#635042"/><path d="m18.646 56.368s2.866 39.457 4.479 40.599c1.613 1.143 4.436.248 4.436.248l1.689-40.567z" fill="#83695a"/><path d="m22.652 19.834s7.131.742 7.393 7.056c.262 6.315.344 29.068.344 29.933 0 .868-3.055 4.709-12.391 4.21-8.891-.474-9.137-3.241-9.137-4.783 0-3.22.681-26.675 2.375-31.875 1.698-5.198 7.637-5.655 11.416-4.541" fill="#009e70"/><path d="m15.979 15.692s.007 6.922.779 7.47c.769.548 5.004-.184 5.004-2.558s-.053-5.525-.053-5.525z" fill="#c49684"/><path d="m14.291 20.854s-5.23-.352-6.588 3.139c-1.357 3.49-3.578 9.554-1.898 10.101 1.679.545 3.185 1.07 3.898.993.713-.076 4.91-10.196 4.588-14.233" fill="#009e70"/><path d="m11.553 5.597s-.633 13.899 3.863 14.565c3.375.5 7.979-1.042 8.125-5.625.148-4.583 1.605-11.335-1.576-11.344-3.184-.007-10.779-.688-10.412 2.404" fill="#e9ae96"/><path d="m25.773 4.793s.256 4.646.176 6.72c-.08 2.076-2.463 4.275-3.279 3.458-.816-.818-.463-8.428-.463-8.428z" fill="#a44732"/><path d="m17.5.548s-4.576.015-6.201 3.015c-1.471 2.715 1.105 3.201 2.25 3.5 1.437.374 5.625 1.312 7.187.75 0 0-.107 5.583 1.672 3.907 1.778-1.675 4.738-4.532 2.776-8.766-1.965-4.231-7.684-2.406-7.684-2.406" fill="#a44732"/><path d="m22.037 12.246s.945-2.419 2.395-1.389c1.451 1.03.277 5.048-1.502 4.355-1.78-.695-.893-2.966-.893-2.966" fill="#e9ae96"/><path d="m32.438 30.269s1.783 5.309 2.083 10.733c.173 3.134-.814 14.904-.814 14.904s.291 2.033.533 2.772c.724 2.162 1.555 6.22-2.003 7.266-3.022.89-2.626-4.107-1.905-8.015.121-.644-.441-12.883-.947-16.781-.628-4.9-3.305-9.595-3.305-9.595z" class="fill-pink-lightest"/><path d="m29.317 22.176c-1.54-1.305-5.792-1.296-6.404 1.923-.612 3.217 2.495 12.965 3.855 13.242.881.181 2.947.051 4.402-.449 1.776-.612 2.222-1.834 2.497-2.557.432-1.13-1.745-9.951-4.35-12.159" fill="#009e70"/></g><g transform="translate(815 9)"><path d="m22.28 88.719c-9.49-1.05-18.96 1.73-21.14 6.205-2.18 4.478 3.75 8.956 13.25 10.002 9.49 1.051 18.96-1.728 21.14-6.205 2.18-4.479-3.75-8.953-13.25-10.002" fill="#77b4b2"/><path d="m14.43 92.32s-1.65 1.625-2.61 2.375-2.08 1.677-1.7 2.469c.37.792 1.47 1.563 4.25 0 2.87-1.614 3.61-2.551 3.66-3.427.04-.938-.38-1.792-.38-1.792z" fill="#717168"/><path d="m12.03 55.695s0 7.5.62 14.75c.63 7.25 1.63 22.625 1.63 22.625s.16 1.042 1.91.542 1.5-2.166 1.5-2.916.73-11.287.42-12.917c-.42-2.167-1-3.917-.58-5.25.41-1.333.91-16.083.91-16.083z" class="fill-pink-lightest"/><path d="m17.83 88.163c-.08 1.34-.14 2.322-.14 2.533 0 .75.25 2.416-1.5 2.916s-1.91-.542-1.91-.542-.13-1.952-.32-4.787c1.65.608 2.99.298 3.87-.12" fill="#f7d0b4"/><path d="m22.01 94.236s-1.65 1.625-2.61 2.375-2.07 1.677-1.7 2.469c.38.792 1.47 1.563 4.25 0 2.88-1.614 3.62-2.551 3.66-3.427.04-.938-.38-1.792-.38-1.792z" fill="#717168"/><path d="m19.61 57.611s0 7.5.62 14.75c.63 7.25 1.63 22.625 1.63 22.625s.17 1.042 1.92.542 1.5-2.166 1.5-2.916.73-11.287.41-12.917c-.41-2.167-1-3.917-.58-5.25s.92-16.083.92-16.083z" class="fill-pink-lightest"/><path d="m25.41 90.063c-.08 1.348-.13 2.337-.13 2.549 0 .75.25 2.416-1.5 2.916s-1.92-.542-1.92-.542-.13-1.928-.32-4.736c1.67.583 3.01.241 3.87-.187" fill="#f7d0b4"/><path d="m8 32.02s.23 2.864.39 4.489c.15 1.625-.47 5.804-.62 9.055-.16 3.25-.08 6.192 0 7.508s-1.81 4.36-.16 6.192c2.17 2.399 4.18.541 3.72-2.632s.39-5.109.54-6.966c.16-1.857-.08-18.033-.08-18.033z" class="fill-pink-lightest"/><path d="m14.63 21.571s-3.09-.099-5.31 3.057c-2.07 2.939-2.32 8.957-1.68 9.838.64.88 3.24 1.113 3.92 1.039.68-.073 3.38-10.06 3.07-13.934" fill="#79687a"/><path d="m17.58 21.004c-2.52 0-4.97 1.239-5.77 3.559-.8 2.318-2.35 6.679-1.39 8.199.96 1.519 1.52 9.118 1.36 11.517-.16 2.4-3.28 16.717-3.36 21.117-.08 4.398 0 5.278 0 5.278s1.93 2.631 8.56 3.039c9.12.56 12.88-3.238 13.68-5.078.8-1.841-1.68-15.478-2.64-19.317s-.92-10.958-1.08-14.157 1.94-9.517-.94-12.036c-3.56-3.111-5.9-2.121-8.42-2.121" fill="#79687a"/><path d="m15.1 5.807-4.42.72s-.61 2.839-.63 5.947c-.01 1.358.61 2.632.57 3.971-.04 1.661-1.48 3.261-.08 4.714.58.6 1.36.215 2.06.056.95-.215 1.68-1.014 2.65-.965.63.031 2.3.165 3.34-.743.48-3.608-3.49-13.7-3.49-13.7" fill="#5b5354"/><path d="m15.38 15.794s.5 6.644 1.24 7.17c.74.525 4.32-.177 4.32-2.456 0-2.278-.3-5.282-.3-5.282z" fill="#c49684"/><path d="m11.14 6.104s-.61 13.341 3.7 13.98c3.24.48 7.46-2.199 7.6-6.599.14-4.398 1.74-9.679-1.31-9.687-3.06-.007-10.35-.661-9.99 2.306" fill="#e9ae96"/><path d="m16.84 1.259s-4.51.013-6.12 2.787c-1.48 2.565-.74 5.479.38 5.29.22-.035.78-.695.78-.695s1.13.325 1.54.125c.83-.402 1.75-1.667 1.75-1.667s.24 1.296 1.13 1.584 2.29-1.792 2.29-1.792.1 1.489.54 3.083c.47 1.691 1.55 2.837 2.42 2.007 1.71-1.607 4.55-4.35 2.67-8.414-1.89-4.06-7.38-2.308-7.38-2.308" fill="#5b5354"/><path d="m23.88 20.313c.59.132 1.36.118 1.95-.043 1.21-.333.71-1.095.7-2.129-.02-1.306.32-2.727.22-4.25-.09-1.514-.61-3.131-.82-4.502-.26-1.72-1.07-4.465-1.59-5.332-1.91-3.194-4.25 3-4.25 3s-.04 4.459.25 7.5c.14 1.467-.16 1.993-.34 3.443-.09.717-.55 2.442.38 2.717s2.39-.65 3.5-.404" fill="#5b5354"/><path d="m29.74 33.062s.24 5.466.03 10.016c-.12 2.63-.39 5.672-.47 6.342-.21 1.679-.68 5.137-.68 5.137s.07 1.721.21 2.358c.42 1.865.77 5.322-2.29 5.892-2.6.486-1.84-3.65-.91-6.849.16-.527-.21-3.685-.26-6.223-.07-2.976.19-3.675.1-6.97-.1-4.143-1.14-9.172-1.14-9.172z" class="fill-pink-lightest"/><path d="m27.66 23.483c-1.21-1.51-4.12-1.96-5.28.96-1.17 2.92.53 12.127 1.76 12.638.8.331 1.9.366 3.36.161 1.78-.252 2.41-1.689 2.8-2.32.61-.986-.59-8.882-2.64-11.439" fill="#79687a"/></g><g transform="matrix(-1 0 0 1 983 81)"><path d="m7.76 31.723s.13 8.437.56 10.062c.44 1.625 2.07 4.063 2.07 4.063l.18-13.5z" class="fill-pink-lightest"/><path d="m12.11 19.974s-3.95.749-4.5 3.416c-.54 2.667-.29 8.084-.16 8.584.12.5.96.916 1.87.958.92.042 2.79-12.958 2.79-12.958" fill="#a5705f"/><path d="m22.31 85.427c-9.5-1.05-18.97 1.73-21.15 6.205-2.18 4.478 3.75 8.956 13.25 10.002 9.5 1.051 18.97-1.728 21.15-6.205 2.18-4.479-3.75-8.953-13.25-10.002" fill="#77b4b2"/><path d="m14.06 89.733s-2.26.515-3.4 1.128c-.67.358-.44 1.303-.37 1.892.09.871 1.07 2.102 3.97.784 3.01-1.361 4.18-1.793 4.3-2.663.13-.931-.18-2.005-1-2.157-1.05-.196-3.5 1.016-3.5 1.016" fill="#c6624b"/><path d="m17.27 55.066s-.33 7.493-1.27 14.709c-.95 7.215-2.52 21.79-2.52 21.79s-.47 1.242-2.13.485c-1.11-.508-.68-1.711-.79-2.452-.21-1.44-.72-11.121-.34-12.737.51-2.146 1.17-3.868.82-5.218-.36-1.351-.21-16.109-.21-16.109z" class="fill-pink-lightest"/><path d="m20.81 92.567s-2.26.515-3.4 1.128c-.67.358-.44 1.303-.37 1.892.09.871 1.07 2.102 3.97.784 3.01-1.361 4.18-1.793 4.3-2.663.13-.931-.18-2.005-1-2.157-1.05-.196-3.5 1.016-3.5 1.016" fill="#c6624b"/><path d="m24.02 57.9s-.33 7.493-1.27 14.709c-.95 7.215-2.52 21.79-2.52 21.79s-.47 1.242-2.13.485c-1.11-.508-.68-1.711-.79-2.452-.21-1.44-.72-11.121-.34-12.737.51-2.146 1.17-3.868.82-5.218-.36-1.351-.21-16.109-.21-16.109z" class="fill-pink-lightest"/><path d="m15.38 18.801c-2.52-.049-6.15 1.821-7 4.125-.84 2.302.95 16.637.74 19.032-.21 2.396-3.34 15.773-3.51 20.171-.16 4.395-.1 5.277-.1 5.277s1.61 3.544 8.23 4.082c9.11.74 12.82-2.482 13.65-4.306.84-1.825-1.25-16.01-2.14-19.868-.88-3.857-1.62-11.087-.8-14.175.83-3.094 1.5-8.851-1.33-11.426-3.5-3.181-5.23-2.862-7.74-2.912" fill="#4dad86"/><path d="m18.92 33.348s.84 5.406 1.96 9.823c.64 2.554 1.5 5.481 1.72 6.122.54 1.603 1.69 4.899 1.69 4.899s.27 1.702.26 2.353c-.04 1.911.3 5.369 3.41 5.319 2.64-.039 1.08-3.942-.47-6.891-.26-.487-.53-3.654-.98-6.152-.52-2.93-.92-3.564-1.49-6.81-.71-4.081-.69-9.218-.69-9.218z" class="fill-pink-lightest"/><path d="m19.05 23.547c.89-1.721 3.65-2.738 5.37-.109 1.72 2.631 1.89 11.991.79 12.736-.72.483-1.79.736-3.27.826-1.79.107-2.9-.861-3.41-1.401-.8-.846-.98-9.138.52-12.052" fill="#a5705f"/><path d="m23.86 8.474s.76 7.835-2.16 8.5c-3.67.833-6.17-1.334-6.17-1.334s-1.67-9.333 1.83-10.333 6 .501 6.5 3.167" fill="#e9ae96"/><path d="m22.53 2.641s2 1.833 2 4.833-1.5 3.666-3 3.5-.83 2.5-.83 3.5c0 .625 1.54 1.83 2.44 4.186.54 1.413.68 2.613.72 3.23.12 1.739-.77-.709-2.6.458s-2.48 3.319-5.32 2.485c-2.83-.834-2.33-.333-3.5-.166-1.16.166-3.66.999-3.5-1.667.17-2.667.09-2.11.09-4.443s-3.83-13.917 1.5-16.583c4.63-2.315 10.33-2.5 12 .667" fill="#36556f"/></g><g transform="translate(770 25)"><path d="m7 32s.13 8.437.56 10.062c.44 1.625 2.07 4.063 2.07 4.063l.18-13.5z" class="fill-pink-lightest"/><path d="m10.8323511 20s-3.95000001.749-4.50000001 3.416c-.54 2.667-.29 8.084-.16 8.584.12.5.96.916 1.87.958.92.042 2.79000001-12.958 2.79000001-12.958" fill="#a5705f"/><path d="m21.6011901 85.2217348c-9.5-1.05-18.97000001 1.73-21.15000001 6.205-2.18 4.478 3.75 8.9560002 13.25000001 10.0020002 9.5 1.051 18.97-1.7280002 21.15-6.2050002 2.18-4.479-3.75-8.953-13.25-10.002" fill="#77b4b2"/><path d="m12.8651085 90.0374454s-2.26.515-3.4 1.128c-.67.358-.44 1.303-.37 1.892.09.871 1.07 2.102 3.97.784 3.01-1.361 4.18-1.793 4.3-2.663.13-.931-.18-2.005-1-2.157-1.05-.196-3.5 1.016-3.5 1.016" fill="#c6624b"/><path d="m16.1868306 55s-.33 7.493-1.27 14.709c-.95 7.215-2.52 21.79-2.52 21.79s-.47 1.242-2.13.485c-1.11-.508-.68-1.711-.79-2.452-.21-1.44-.72-11.121-.34-12.737.51-2.146 1.17-3.868.82-5.218-.36-1.351-.21-16.109-.21-16.109z" class="fill-pink-lightest"/><path d="m19.8651085 92.0374454s-2.26.515-3.4 1.128c-.67.358-.44 1.303-.37 1.892.09.871 1.07 2.102 3.97.784 3.01-1.361 4.18-1.793 4.3-2.663.13-.931-.18-2.005-1-2.157-1.05-.196-3.5 1.016-3.5 1.016" fill="#c6624b"/><path d="m23.1868306 58s-.33 7.493-1.27 14.709c-.95 7.215-2.52 21.79-2.52 21.79s-.47 1.242-2.13.485c-1.11-.508-.68-1.711-.79-2.452-.21-1.44-.72-11.121-.34-12.737.51-2.146 1.17-3.868.82-5.218-.36-1.351-.21-16.109-.21-16.109z" class="fill-pink-lightest"/><path d="m13.8810204 19.0009415c-2.52-.049-6.14999999 1.821-6.99999999 4.125-.84 2.302.95 16.637.74 19.032-.21 2.396-3.34 15.773-3.51 20.171-.16 4.395-.1 5.277-.1 5.277s1.61 3.544 8.22999999 4.082c9.11.74 12.82-2.482 13.65-4.306.84-1.825-1.25-16.01-2.14-19.868-.88-3.857-1.62-11.087-.8-14.175.83-3.094 1.5-8.851-1.33-11.426-3.5-3.181-5.23-2.862-7.74-2.912" fill="#4dad86"/><path d="m18 33.555s.84 5.406 1.96 9.823c.64 2.554 1.5 5.481 1.72 6.122.54 1.603 1.69 4.899 1.69 4.899s.27 1.702.26 2.353c-.04 1.911.3 5.369 3.41 5.319 2.64-.039 1.08-3.942-.47-6.891-.26-.487-.53-3.654-.98-6.152-.52-2.93-.92-3.564-1.49-6.81-.71-4.081-.69-9.218-.69-9.218z" class="fill-pink-lightest"/><path d="m18.1272669 23.7123258c.89-1.721 3.65-2.738 5.37-.109 1.72 2.631 1.89 11.991.79 12.736-.72.483-1.79.736-3.27.826-1.79.107-2.9-.861-3.41-1.401-.8-.846-.98-9.138.52-12.052" fill="#a5705f"/><path d="m22.7281963 8.4785148s.76 7.835-2.16 8.5c-3.67.833-6.17-1.334-6.17-1.334s-1.67-9.333 1.83-10.333 6 .501 6.5 3.167" fill="#e9ae96"/><path d="m21.8317969 2.39323615s2 1.833 2 4.833c0 2.99999995-1.5 3.66599995-3 3.49999995s-.83 2.5-.83 3.5c0 .625 1.54 1.83 2.44 4.186.54 1.413.68 2.613.72 3.23.12 1.739-.77-.709-2.6.458s-2.48 3.319-5.32 2.485c-2.83-.834-2.33-.333-3.5-.166-1.16.166-3.65999996.999-3.49999996-1.667.17-2.667.09-2.11.09-4.443s-3.83-13.91699995 1.5-16.58299995c4.62999996-2.315 10.32999996-2.5 11.99999996.667" fill="#36556f"/></g><g transform="translate(867 77)"><path d="m.877 30.764s.227 6.521.904 11.912c.393 3.112.994 6.705 1.158 7.493.407 1.975 1.291 6.043 1.291 6.043s.083 2.053-.025 2.823c-.322 2.256-1.119 6.016 2.566 6.406 3.133.333 2.555-4.129 1.145-7.845-.234-.612-.102-4.4-.275-7.422-.2-3.545-.577-4.352-.782-8.278-.261-4.932-.439-11.61-.439-11.61z" class="fill-pink-lightest"/><path d="m22.742 86.629c-9.498-1.05-18.967 1.73-21.146 6.205-2.18 4.479 3.75 8.956 13.25 10.002 9.496 1.051 18.964-1.728 21.144-6.205 2.18-4.479-3.75-8.953-13.248-10.002" fill="#77b4b2"/><path d="m22.832 93.281c-.783.577-6.086 1.898-5.564 4.87.521 2.971 10.931-.354 10.693-3.714-.172-2.476-4.346-1.733-5.129-1.156" fill="#40404c"/><path d="m12.049 88.989c-.781.578-6.088 1.898-5.565 4.869.522 2.971 10.932-.355 10.696-3.714-.174-2.477-4.348-1.734-5.131-1.155" fill="#40404c"/><path d="m3.621 56.219s2.352 35.443 3.391 36.896c1.08 1.51 3.414 1.11 4.435.247 1.02-.862 2.043-36.883 2.043-36.883z" fill="#4e6895"/><path d="m13.49 56.479s2.865 39.457 4.479 40.598c1.613 1.144 3.246.948 4.435.248 1.188-.7 1.69-40.566 1.69-40.566z" fill="#4e6895"/><path d="m17.135 20.167s6 1 7.754 6.833c1.822 6.053.343 29.068.343 29.934 0 .868-3.054 4.709-12.39 4.21-8.891-.475-10.102-3.001-10.102-4.543 0-1.253 1.213-5.057.561-10.268-1-8-1.867-18.49-.832-21.666 1.697-5.198 10.885-5.614 14.666-4.5" fill="#83488b"/><path d="m16.605 15.803s.448 4.669-.388 5.114c-2.5 1.333-5.395-.203-5.395-.203l-.439-5.714z" fill="#c49684"/><path d="m9.135 20.964s-5.231-.352-6.588 3.14c-1.358 3.49-3.578 9.553-1.899 10.1 1.68.545 3.186 1.07 3.899.993.713-.076 4.91-10.196 4.588-14.233" fill="#83488b"/><path d="m19.414 5.219s3.57 12.607-.863 13.615c-3.326.757-9.168-.692-9.666-5.25-.498-4.559-3.209-9.713-.035-9.965 3.171-.25 10.693-1.511 10.564 1.6" fill="#e9ae96"/><path d="m19.441 32.533s.44 6.511 1.293 11.876c.495 3.099 1.215 6.669 1.403 7.452.47 1.96 1.49 5.997 1.49 5.997s.146 2.049.064 2.823c-.248 2.265-.92 6.049 2.776 6.319 3.143.23 2.418-4.211.887-7.879-.254-.603-.245-4.393-.516-7.409-.317-3.536-.721-4.33-1.053-8.247-.422-4.922-.818-11.59-.818-11.59z" class="fill-pink-lightest"/><path d="m24 24.495c-1.264-1.574-5.439-2.375-6.654.668-1.213 3.042-.02 13.203 1.263 13.734.83.346 2.883.611 4.407.397 1.861-.262 2.531-1.377 2.939-2.034.639-1.028.182-10.102-1.955-12.765" fill="#83488b"/><path d="m20.635 6.751s-1.166 1.75-2.166 2.5-.334 2.916-.418 3.583c-.082.667-3.084.832-3.084 2.249s2.002 3.918-2.166 4.251c-1.785.143-5.342-.856-5.666-3.083s-2.229-3.956-2.416-6.75c-.418-6.166 3.416-8.917 7-9.167 3.582-.25 10.75 1.667 8.916 6.417" fill="#b98034"/><path d="m16.969 12.484s-1.127-2.339-2.494-1.202c-1.368 1.138.109 5.055 1.832 4.228 1.72-.83.662-3.026.662-3.026" fill="#e9ae96"/></g><path d="m534.877881 120.477s-.226 6.522-.904 11.912c-.393 3.113-.994 6.705-1.158 7.493-.406 1.975-1.291 6.043-1.291 6.043s-.082 2.053.025 2.824c.322 2.256 1.119 6.015-2.566 6.406-3.133.333-2.555-4.13-1.145-7.846.235-.611.102-4.399.276-7.422.199-3.545.576-4.351.781-8.277.262-4.933.439-11.61.439-11.61z" class="fill-pink-lightest"/><path d="m526.718619 111s4.73.263 6.729 2.349c1.917 2 3.437 10.345 1.758 10.892-1.68.545-3.186 1.07-3.899.993-.713-.076-4.91-10.197-4.588-14.234" fill="#d15643"/><g transform="translate(575 12)"><g transform="matrix(-1 0 0 1 88 0)"><path d="m36.605 89.894c-9.498-1.05-18.964 1.73-21.144 6.205-2.182 4.478 3.75 8.956 13.248 10.002 9.498 1.05 18.967-1.728 21.146-6.205 2.18-4.479-3.75-8.954-13.25-10.002" fill="#77b4b2"/><path d="m26.6 30.716-4.323 12.099s-9.148 1.991-10.58 2.234c-1.509.257-5.277 5.444-9.248 3.045-3.969-2.397-.529-3.733 1.674-4.034 2.205-.305 3.029-.993 2.039-1.349-.988-.36-3.004.621-3.016-.343-.015-.962 2.688-1.75 4.215-1.284 1.53.469 3.17.424 4.27.271 1.101-.15 7.724-3.473 7.724-3.473l1.28-7.569z" fill="#e9ae96"/><path d="m36.676 96.143c-.783.577-6.086 1.897-5.565 4.87.522 2.97 10.932-.355 10.694-3.715-.172-2.476-4.346-1.733-5.129-1.155" fill="#50403f"/><path d="m25.893 91.851c-.782.578-6.088 1.897-5.565 4.869.522 2.97 10.932-.356 10.695-3.715-.173-2.477-4.347-1.734-5.13-1.154" fill="#50403f"/><path d="m23.111 56.108s1.778 36.126 3.391 36.897 4.434.247 4.434.247l2.043-36.884z" fill="#83695a"/><path d="m32.979 56.368s2.867 39.457 4.48 40.599c1.611 1.143 4.434.248 4.434.248l1.691-40.567z" fill="#83695a"/><path d="m36.986 19.834s7.131.742 7.393 7.056c.26 6.315.344 29.068.344 29.933 0 .868-3.057 4.709-12.393 4.21-8.889-.474-10.101-3.001-10.101-4.543 0-3.219.451-27.754 2.146-32.954 1.697-5.198 8.83-4.816 12.611-3.702" fill="#3a5683"/><path d="m30.313 15.692s.007 6.922.779 7.47c.769.548 5.004-.183 5.004-2.558 0-2.374-.053-5.525-.053-5.525z" fill="#c49684"/><path d="m28.625 20.854s-5.23-.352-6.588 3.139c-1.357 3.49-3.578 9.554-1.898 10.101 1.677.545 3.185 1.07 3.898.993.711-.076 4.91-10.196 4.588-14.233" fill="#3a5683"/><path d="m25.887 5.597s-.633 13.899 3.863 14.565c3.375.5 7.979-1.042 8.125-5.625.148-4.583 1.605-11.335-1.578-11.344-3.182-.006-10.779-.688-10.41 2.404" fill="#e9ae96"/><path d="m40.105 4.793s.256 4.645.178 6.72c-.082 2.076-2.465 4.275-3.281 3.458-.816-.818-.461-8.428-.461-8.428z" fill="#382b1d"/><path d="m31.832.548s-6.564.296-7.301 3.294c-.734 3 .155 5.319 1.321 5.122 1.168-.194 6.263-1.987 7.101-3.151 0 0 2.01 7.583 3.787 5.907 1.78-1.675 4.739-4.532 2.776-8.766-1.965-4.231-7.684-2.406-7.684-2.406" fill="#382b1d"/><path d="m36.371 12.246s.943-2.419 2.395-1.389c1.449 1.03.277 5.048-1.504 4.355-1.78-.695-.891-2.966-.891-2.966" fill="#e9ae96"/><path d="m45.959 31.611s.291 6.519.039 11.946c-.144 3.134-.463 6.762-.562 7.562-.25 2-.813 6.125-.813 6.125s.084 2.053.25 2.813c.5 2.223.916 6.345-2.728 7.025-3.098.579-2.198-4.352-1.084-8.167.185-.629-.247-4.394-.313-7.421-.08-3.55.232-4.384.125-8.312-.127-4.94-1.369-10.938-1.369-10.938z" class="fill-pink-lightest"/><path d="m44.488 23.385c-1.261-1.574-5.437-2.375-6.652.668-1.213 3.042-.02 13.203 1.262 13.734.832.346 2.884.61 4.408.397 1.859-.262 2.529-1.377 2.937-2.035.639-1.027.182-10.101-1.955-12.764" fill="#3a5683"/></g><g transform="translate(135 33)"><path d="m6.405 32.86s.251 3.084.418 4.834c.166 1.75-.501 6.25-.668 9.75-.166 3.5-.083 6.666 0 8.083.084 1.417-1.948 4.695-.166 6.667 2.334 2.583 4.5.582 4-2.834s.417-5.5.584-7.5c.166-2-.084-19.416-.084-19.416z" class="fill-pink-lightest"/><path d="m21.606 90.227c-9.498-1.05-18.966 1.73-21.146 6.205-2.18 4.478 3.75 8.956 13.25 10.002 9.496 1.05 18.967-1.728 21.146-6.205 2.18-4.479-3.752-8.954-13.25-10.002" fill="#77b4b2"/><path d="m21.677 96.476c-.783.577-6.088 1.897-5.567 4.87.522 2.97 10.932-.355 10.696-3.715-.174-2.476-4.348-1.733-5.129-1.155" fill="#2b2034"/><path d="m10.894 92.184c-.782.578-6.088 1.897-5.567 4.869.522 2.97 10.934-.356 10.697-3.715-.173-2.477-4.347-1.734-5.13-1.154" fill="#2b2034"/><path d="m8.11 56.441s1.78 36.126 3.391 36.897c1.613.771 4.436.247 4.436.247l2.042-36.884z" fill="#0a5e7b"/><path d="m17.979 56.701s2.866 39.457 4.479 40.599c1.613 1.143 4.436.248 4.436.248l1.689-40.567z" fill="#0a5e7b"/><path d="m21.124 20.224s7.992.685 8.254 6.999c.262 6.315.344 29.068.344 29.933 0 .868-3.055 4.709-12.391 4.21-8.891-.474-10.102-3.001-10.102-4.543 0-3.219.94-27.619 2.145-32.954.75-3.312 7.969-4.76 11.75-3.645" fill="#d53e55"/><path d="m15.312 16.025s.007 6.922.779 7.47c.769.548 5.004-.183 5.004-2.558 0-2.374-.053-5.525-.053-5.525z" fill="#c49684"/><path d="m14.042 20.77s-5.23-.352-6.588 3.139c-1.357 3.49-3.578 9.554-1.898 10.101 1.677.545 3.185 1.07 3.898.993.711-.076 4.91-10.196 4.588-14.233" fill="#d53e55"/><path d="m10.886 5.93s-.633 13.899 3.863 14.565c3.375.5 7.979-1.042 8.125-5.625.148-4.583 1.605-11.335-1.576-11.344-3.184-.006-10.779-.688-10.412 2.404" fill="#e9ae96"/><path d="m25.106 5.126s.256 4.645.176 6.72c-.08 2.076-2.463 4.275-3.279 3.458-.816-.818-.463-8.428-.463-8.428z" fill="#c38433"/><path d="m16.833.881s-4.701.015-6.377 2.904c-1.549 2.673-.771 5.709.397 5.512.439-.073 1.117-.281 1.978-.699s2.5-1.563 2.5-1.563-.25.813-.562 2.063c1.562-.313 3.625-1.938 4.062-2.875.133-.284 1.131 7.506 2.91 5.83 1.778-1.675 4.738-4.532 2.776-8.766-1.965-4.231-7.684-2.406-7.684-2.406" fill="#c38433"/><path d="m21.37 12.579s.945-2.419 2.395-1.389c1.451 1.03.277 5.048-1.502 4.355-1.78-.695-.893-2.966-.893-2.966" fill="#e9ae96"/><path d="m31.292 32.027s.291 6.519.039 11.946c-.144 3.134-.463 6.762-.562 7.562-.25 2-.813 6.125-.813 6.125s.084 2.053.25 2.813c.5 2.223.916 6.345-2.728 7.025-3.098.579-2.198-4.352-1.084-8.167.185-.629-.247-4.393-.313-7.421-.08-3.55.232-4.384.125-8.312-.127-4.94-1.369-10.938-1.369-10.938z" class="fill-pink-lightest"/><path d="m29.821 23.801c-1.261-1.574-5.437-2.375-6.652.668-1.213 3.042-.02 13.203 1.262 13.734.832.346 2.884.61 4.408.397 1.859-.262 2.529-1.377 2.937-2.035.639-1.027.182-10.101-1.955-12.764" fill="#d53e55"/></g><g transform="translate(101 5)"><path d="m8.098 31.284s.232 2.864.387 4.489c.156 1.625-.464 5.805-.62 9.056-.154 3.25-.076 6.192 0 7.508.078 1.315-1.809 4.359-.154 6.191 2.168 2.4 4.18.541 3.715-2.632-.463-3.172.388-5.108.543-6.965.154-1.858-.078-18.034-.078-18.034z" class="fill-pink-lightest"/><path d="m22.381 87.983c-9.498-1.049-18.967 1.731-21.147 6.205-2.179 4.479 3.75 8.957 13.25 10.002 9.496 1.051 18.967-1.727 21.147-6.205s-3.752-8.953-13.25-10.002" fill="#77b4b2"/><path d="m14.529 91.585s-1.656 1.625-2.614 2.375-2.073 1.677-1.698 2.469 1.469 1.562 4.25 0c2.874-1.615 3.615-2.551 3.656-3.427.045-.939-.375-1.792-.375-1.792z" fill="#2b2034"/><path d="m12.123 54.96s0 7.5.625 14.75 1.625 22.625 1.625 22.625.167 1.042 1.917.542 1.5-2.166 1.5-2.916.73-11.287.417-12.917c-.417-2.167-1.001-3.917-.584-5.25s.917-16.083.917-16.083z" class="fill-pink-lightest"/><path d="m22.112 93.501s-1.655 1.625-2.614 2.375-2.073 1.677-1.698 2.469 1.469 1.562 4.25 0c2.874-1.615 3.614-2.551 3.656-3.427.044-.939-.375-1.792-.375-1.792z" fill="#2b2034"/><path d="m19.706 56.876s0 7.5.625 14.75 1.625 22.625 1.625 22.625.167 1.042 1.917.542 1.5-2.166 1.5-2.916.731-11.287.416-12.917c-.416-2.167-1-3.917-.583-5.25s.917-16.083.917-16.083z" class="fill-pink-lightest"/><path d="m14.724 20.836s-3.085-.1-5.304 3.057c-2.067 2.939-2.319 8.957-1.68 9.837.64.88 3.235 1.114 3.919 1.04.683-.074 3.374-10.06 3.065-13.934" fill="#de7b2e"/><path d="m17.678 20.269c-2.52 0-5.24.32-6.039 2.639-.801 2.319-2.08 7.599-1.119 9.118.959 1.52 1.518 9.119 1.359 11.518-.16 2.399-3.279 16.717-3.359 21.116-.081 4.399 0 5.278 0 5.278s1.926 2.631 8.557 3.04c9.118.56 12.878-3.239 13.677-5.079.801-1.84-1.68-15.477-2.639-19.316-.96-3.84-.92-10.958-1.08-14.157s1.32-8.879-1.559-11.398c-3.556-3.111-5.279-2.759-7.798-2.759" fill="#de7b2e"/><path d="m10.778 5.792s.06 5.519-.059 9.917c-.112 4.098-.801 6 .639 6.08 1.44.079 4.459-1.301 5.179-4.66.721-3.359-1.34-12.058-1.34-12.058z" fill="#6e564b"/><path d="m15.482 15.059s.495 6.643 1.235 7.17c.739.525 4.316-.177 4.316-2.457 0-2.277-.297-5.282-.297-5.282z" fill="#c49684"/><path d="m11.234 5.369s-.607 13.341 3.708 13.98c3.24.48 7.454-2.2 7.594-6.599.143-4.398 1.745-9.68-1.309-9.687-3.055-.007-10.346-.662-9.993 2.306" fill="#e9ae96"/><path d="m24.883 4.598c1.912 3.193 1.109 12.16 1.033 14.151-.078 1.993-4.336 5.344-5.119 4.56-.783-.786.664-17.032.664-17.032s1.51-4.873 3.422-1.679" fill="#6e564b"/><path d="m16.941.523s-4.511.014-6.119 2.788c-1.486 2.565-.74 5.479.379 5.29.424-.071 1.074-.27 1.901-.671.826-.402 2.399-1.5 2.399-1.5s-.239.78-.54 1.979c1.5-.3 3.479-1.859 3.899-2.759.127-.272 1.085 7.205 2.792 5.596 1.707-1.607 4.549-4.35 2.664-8.414-1.885-4.061-7.375-2.309-7.375-2.309" fill="#6e564b"/><path d="m29.836 32.326s.244 5.467.033 10.017c-.121 2.63-.389 5.672-.472 6.342-.209 1.678-.681 5.136-.681 5.136s.071 1.722.21 2.359c.419 1.865.767 5.322-2.289 5.891-2.596.487-1.842-3.649-.908-6.848.156-.528-.208-3.685-.262-6.223-.068-2.977.195-3.676.105-6.971-.107-4.142-1.148-9.172-1.148-9.172z" class="fill-pink-lightest"/><path d="m27.756 22.748c-1.212-1.511-4.113-1.96-5.279.96-1.164 2.92.527 12.127 1.758 12.638.798.331 1.898.366 3.361.161 1.784-.252 2.407-1.69 2.799-2.32.613-.987-.588-8.882-2.639-11.439" fill="#de7b2e"/></g><g transform="translate(70 61)"><path d="m28.632 31.75s-.125 8.438-.563 10.063c-.437 1.625-2.062 4.062-2.062 4.062l-.188-13.5z" class="fill-pink-lightest"/><path d="m13.832 84.912c9.498-1.05 18.967 1.731 21.147 6.205 2.179 4.479-3.75 8.956-13.25 10.002-9.497 1.051-18.967-1.727-21.147-6.205s3.752-8.953 13.25-10.002" fill="#77b4b2"/><path d="m22.332 89.761s2.261.514 3.401 1.128c.667.357.439 1.302.372 1.891-.096.871-1.072 2.103-3.978.784-3.002-1.361-4.18-1.793-4.297-2.663-.125-.93.182-2.005 1.006-2.157 1.049-.195 3.496 1.017 3.496 1.017" fill="#4c3b60"/><path d="m19.123 55.094s.329 7.492 1.273 14.709c.942 7.215 2.512 21.79 2.512 21.79s.479 1.241 2.133.484c1.111-.508.685-1.711.793-2.452.209-1.439.722-11.121.336-12.736-.51-2.147-1.171-3.868-.813-5.219s.209-16.108.209-16.108z" class="fill-pink-lightest"/><path d="m15.582 92.595s2.261.514 3.401 1.128c.667.357.439 1.302.372 1.891-.096.871-1.072 2.103-3.978.784-3.002-1.361-4.18-1.793-4.297-2.663-.125-.93.182-2.005 1.006-2.157 1.049-.195 3.496 1.017 3.496 1.017" fill="#4c3b60"/><path d="m12.373 57.928s.329 7.492 1.273 14.709c.942 7.215 2.512 21.79 2.512 21.79s.479 1.241 2.133.484c1.111-.508.685-1.711.793-2.452.209-1.439.722-11.121.336-12.736-.51-2.147-1.171-3.869-.813-5.219.358-1.351.209-16.108.209-16.108z" class="fill-pink-lightest"/><path d="m21.018 18.828c2.518-.049 6.146 1.821 6.991 4.125.846 2.302-.944 16.637-.738 19.032.208 2.396 3.34 15.774 3.507 20.171.167 4.396.104 5.278.104 5.278s-1.609 3.544-8.23 4.082c-9.105.739-12.819-2.483-13.654-4.307-.836-1.824 1.256-16.01 2.139-19.867.884-3.858 1.63-11.088.802-14.176-.829-3.094-1.494-8.851 1.336-11.426 3.495-3.18 5.223-2.862 7.743-2.912" fill="#c46482"/><path d="m17.475 33.375s-.848 5.406-1.957 9.823c-.643 2.554-1.508 5.482-1.723 6.122-.539 1.604-1.689 4.9-1.689 4.9s-.272 1.701-.262 2.352c.04 1.911-.305 5.369-3.414 5.32-2.641-.039-1.08-3.943.47-6.892.258-.486.53-3.653.979-6.151.526-2.931.922-3.565 1.488-6.811.719-4.081.697-9.218.697-9.218z" class="fill-pink-lightest"/><path d="m17.338 23.574c-.888-1.72-3.643-2.738-5.365-.108-1.721 2.631-1.892 11.99-.786 12.735.715.484 1.787.737 3.26.826 1.799.108 2.905-.861 3.414-1.401.797-.846.979-9.138-.523-12.052" fill="#5a82a3"/><path d="m24.277 20.001s3.959.749 4.5 3.416c.542 2.667.292 8.084.167 8.584s-.958.916-1.875.958-2.792-12.958-2.792-12.958" fill="#5a82a3"/><path d="m12.527 8.501s-.757 7.835 2.167 8.5c3.667.833 6.167-1.334 6.167-1.334s1.666-9.333-1.834-10.333-6 .501-6.5 3.167" fill="#e9ae96"/><path d="m13.861 2.668s-2 1.833-2 4.833 1.5 3.666 3 3.5.833 2.5.833 3.5c0 .625-1.537 1.83-2.437 4.187-.54 1.413-.689 2.613-.73 3.229-.114 1.739.772-.709 2.605.458s2.229 7.71 2.729 9.376.167 2.834 3 2 2.334-.334 3.5-.167 3.667.999 3.5-1.667-.5-11-.5-13.333 3.834-13.917-1.5-16.583c-4.631-2.314-10.333-2.5-12 .667" fill="#e88048"/></g><path d="m1 60.478s.226 6.521.904 11.912c.393 3.112.994 6.705 1.158 7.493.406 1.975 1.291 6.043 1.291 6.043s.082 2.053-.025 2.823c-.322 2.256-1.119 6.016 2.566 6.406 3.133.333 2.555-4.129 1.145-7.845-.235-.612-.102-4.4-.276-7.422-.199-3.545-.576-4.352-.781-8.277-.262-4.933-.439-11.611-.439-11.611z" class="fill-pink-lightest"/><path d="m22.5978797 116.221735c-9.498-1.05-18.96700003 1.73-21.14700003 6.205-2.179 4.479 3.75 8.956 13.25000003 10.002 9.497 1.051 18.967-1.728 21.147-6.205 2.18-4.479-3.752-8.953-13.25-10.002" fill="#77b4b2"/><path d="m22.6009411 122.572252c-.783.577-6.086 1.898-5.565 4.87.522 2.971 10.932-.354 10.694-3.714-.172-2.476-4.346-1.733-5.129-1.156" fill="#40404c"/><path d="m12.6011897 118.573845c-.782.578-6.08800001 1.898-5.56500001 4.869.522 2.971 10.93200001-.355 10.69500001-3.714-.173-2.477-4.347-1.734-5.13-1.155" fill="#40404c"/><path d="m4 86s2.351 35.443 3.39 36.896c1.081 1.51 3.415 1.11 4.436.247 1.02-.862 2.043-36.883 2.043-36.883z" fill="#4e6895"/><path d="m14 86s2.865 39.457 4.478 40.598c1.614 1.144 3.247.948 4.436.248 1.188-.7 1.689-40.566 1.689-40.566z" fill="#4e6895"/><path d="m17.1330319 49.5045176s6 1 7.754 6.833c1.823 6.053.344 29.068.344 29.934 0 .868-3.055 4.709-12.39 4.21-8.89099999-.475-10.10199999-3.001-10.10199999-4.543 0-1.253 1.213-5.057.561-10.268-1-8-1.868-18.49-.833-21.666 1.698-5.198 10.88499999-5.614 14.66599999-4.5" fill="#fbe0c0"/><path d="m17.222 44.803s.447 4.669-.388 5.114c-2.5 1.333-5.395-.203-5.395-.203l-.439-5.714z" fill="#c49684"/><path d="m9.08920612 50.0099087s-5.23-.352-6.587 3.14c-1.358 3.49-3.579 9.553-1.899 10.1 1.68.545 3.186 1.07 3.899.993.712-.076 4.91-10.196 4.587-14.233" fill="#fbe0c0"/><path d="m20.0822569 35.0636725s3.57 12.607-.863 13.615c-3.327.757-9.168-.692-9.66700002-5.25-.498-4.559-3.208-9.713-.035-9.965 3.17200002-.25 10.69400002-1.511 10.56500002 1.6" fill="#e9ae96"/><path d="m20 61.658s.44 6.511 1.293 11.876c.494 3.099 1.215 6.669 1.402 7.452.471 1.96 1.491 5.997 1.491 5.997s.146 2.049.064 2.823c-.248 2.265-.92 6.05 2.776 6.319 3.142.231 2.417-4.211.886-7.879-.254-.603-.244-4.393-.515-7.409-.317-3.536-.721-4.33-1.053-8.247-.422-4.922-.818-11.59-.818-11.59z" class="fill-pink-lightest"/><path d="m24.1591793 53.397733c-1.264-1.574-5.44-2.375-6.655.668-1.212 3.042-.019 13.203 1.264 13.735.83.345 2.883.61 4.406.396 1.862-.262 2.532-1.377 2.94-2.034.638-1.028.181-10.102-1.955-12.765" fill="#fbe0c0"/><path d="m20.9472393 36.4385051s-1.166 1.75-2.166 2.5-.334 2.916-.417 3.583-3.084.832-3.084 2.249 2.001 3.918-2.166 4.251c-1.786.143-5.34199996-.856-5.66699996-3.083-.324-2.227-2.228-3.956-2.416-6.75-.417-6.166 3.416-8.917 6.99999996-9.167 3.583-.25 10.75 1.667 8.916 6.417" fill="#81462f"/><path d="m17.0305937 41.5137398s-1.126-2.339-2.494-1.202c-1.367 1.138.11 5.055 1.832 4.228 1.721-.83.662-3.026.662-3.026" fill="#e9ae96"/></g><g transform="matrix(-1 0 0 1 1024 25)"><path d="m29 32.834s1.25 11.111 1.41 14.611c.17 3.5.09 6.666 0 8.082-.08 1.418 1.95 4.696.17 6.668-2.34 2.582-4.5.582-4-2.834s-.42-5.5-.59-7.5c-.16-2 .09-19.416.09-19.416z" class="fill-pink-lightest"/><path d="m13.71 90.227c9.5-1.049 18.97 1.73 21.15 6.205 2.18 4.478-3.75 8.957-13.25 10.002-9.5 1.05-18.97-1.727-21.15-6.205-2.18-4.479 3.75-8.954 13.25-10.002" fill="#77b4b2"/><path d="m13.64 96.477c.78.576 6.09 1.896 5.57 4.869-.53 2.97-10.94-.354-10.7-3.715.17-2.475 4.35-1.733 5.13-1.154" fill="#915c33"/><path d="m16.58 91.765c.64.727 5.56 3.119 4.43 5.918-1.13 2.797-10.62-2.617-9.69-5.853.68-2.387 4.61-.795 5.26-.065" fill="#5c3c26"/><path d="m25.54 56.834s1.2 9.447-1.42 18.5c-2.46 8.527-7.54 17.23-8.38 17.434-1.74.42-4.39-.678-4.39-.678l5.27-18.256.38-18.25z" fill="#5c6a39"/><path d="m17.34 56.701s-2.87 39.457-4.48 40.6c-1.61 1.142-4.44.248-4.44.248l-1.69-40.567z" fill="#7b964a"/><path d="m13.33 20.168s-7.13.742-7.39 7.055c-.26 6.316-.35 29.068-.35 29.933 0 .869 3.06 4.709 12.4 4.211 8.89-.474 9.13-3.242 9.13-4.783 0-3.221-.68-26.676-2.37-31.875-1.7-5.199-7.64-5.656-11.42-4.541" fill="#2e696b"/><path d="m20 16.025s0 6.922-.77 7.471c-.77.547-5.01-.183-5.01-2.558 0-2.374.05-5.526.05-5.526z" fill="#c49684"/><path d="m21.69 21.188s5.23-.352 6.59 3.138 3.58 9.555 1.9 10.102c-1.68.545-3.19 1.07-3.9.992-.71-.076-4.91-10.195-4.59-14.232" fill="#2e696b"/><path d="m24.43 5.93s.63 13.9-3.86 14.566c-3.38.5-7.98-1.043-8.13-5.625-.15-4.584-1.6-11.336 1.58-11.344 3.18-.007 10.78-.689 10.41 2.403" fill="#e9ae96"/><path d="m10.21 5.127s-.25 4.644-.18 6.719c.09 2.076 2.47 4.275 3.28 3.459.82-.819.47-8.428.47-8.428z" fill="#c69233"/><path d="m18.48.881s4.58.015 6.2 3.015c.43.788.27 1.723-.15 2.063-.48.389-1.25.125-1.25.125s-1 .833-2.13 1c-1.12.167-3.25-.792-3.25-.792s-1.7 2.198-2.65 1.854c0 0 .1 5.584-1.67 3.907-1.78-1.674-4.74-4.532-2.78-8.766 1.97-4.23 7.68-2.406 7.68-2.406" fill="#c69233"/><path d="m13.95 12.58s-.95-2.42-2.4-1.389c-1.45 1.03-.28 5.047 1.5 4.354 1.78-.695.9-2.965.9-2.965" fill="#e9ae96"/><path d="m3.55 30.604s-1.79 5.308-2.09 10.732c-.17 3.133.82 14.903.82 14.903s-.29 2.034-.54 2.773c-.72 2.162-1.55 6.22 2.01 7.265 3.02.891 2.62-4.106 1.9-8.014-.12-.645.44-12.883.95-16.781.63-4.901 3.3-9.595 3.3-9.595z" class="fill-pink-lightest"/><path d="m6.67 22.51c1.54-1.305 5.79-1.297 6.4 1.922.61 3.217-2.49 12.965-3.85 13.243-.89.18-2.95.05-4.41-.45-1.77-.612-2.22-1.833-2.49-2.557-.43-1.13 1.74-9.951 4.35-12.158" fill="#2e696b"/></g><g transform="translate(374 13)"><path d="m36.139 89.894c-9.498-1.05-18.966 1.73-21.145 6.205-2.181 4.478 3.75 8.956 13.249 10.002 9.497 1.05 18.966-1.728 21.146-6.205 2.18-4.479-3.751-8.954-13.25-10.002" fill="#77b4b2"/><path d="m26.133 30.716-4.323 12.099s-9.147 1.991-10.58 2.234c-1.51.257-5.277 5.444-9.247 3.045-3.97-2.397-.529-3.733 1.673-4.034 2.205-.305 3.029-.993 2.04-1.349-.988-.36-3.004.621-3.017-.343-.015-.962 2.689-1.75 4.216-1.284 1.528.469 3.169.424 4.269.271 1.102-.15 7.725-3.473 7.725-3.473l1.279-7.569z" fill="#e9ae96"/><path d="m36.209 96.143c-.783.577-6.086 1.897-5.565 4.87.522 2.97 10.932-.355 10.694-3.715-.172-2.476-4.346-1.733-5.129-1.155" fill="#50403f"/><path d="m25.426 91.851c-.781.578-6.088 1.897-5.565 4.869.521 2.97 10.932-.356 10.696-3.715-.174-2.477-4.348-1.734-5.131-1.154" fill="#50403f"/><path d="m22.644 56.108s1.778 36.126 3.391 36.897 4.434.247 4.434.247l2.043-36.884z" fill="#83695a"/><path d="m32.512 56.368s2.866 39.457 4.48 40.599c1.612 1.143 4.434.248 4.434.248l1.691-40.567z" fill="#83695a"/><path d="m36.519 19.834s7.131.742 7.393 7.056c.26 6.315.343 29.068.343 29.933 0 .868-3.055 4.709-12.391 4.21-8.89-.474-10.102-3.001-10.102-4.543 0-3.219.451-27.754 2.146-32.954 1.697-5.198 8.831-4.816 12.611-3.702" fill="#3a5683"/><path d="m29.845 15.692s.008 6.922.78 7.47c.769.548 5.003-.183 5.003-2.558 0-2.374-.052-5.525-.052-5.525z" fill="#c49684"/><path d="m28.158 20.854s-5.231-.352-6.588 3.139c-1.358 3.49-3.578 9.554-1.899 10.101 1.679.545 3.186 1.07 3.899.993.712-.076 4.91-10.196 4.588-14.233" fill="#3a5683"/><path d="m25.419 5.597s-.632 13.899 3.864 14.565c3.375.5 7.978-1.042 8.125-5.625.148-4.583 1.605-11.335-1.577-11.344-3.183-.006-10.78-.688-10.412 2.404" fill="#e9ae96"/><path d="m39.639 4.793s.256 4.645.177 6.72c-.081 2.076-2.464 4.275-3.28 3.458-.817-.818-.462-8.428-.462-8.428z" fill="#382b1d"/><path d="m31.366.548s-6.566.296-7.301 3.294c-.735 3 .153 5.319 1.32 5.122 1.167-.194 6.264-1.987 7.101-3.151 0 0 2.01 7.583 3.788 5.907 1.778-1.675 4.738-4.532 2.775-8.766-1.965-4.231-7.683-2.406-7.683-2.406" fill="#382b1d"/><path d="m35.904 12.246s.944-2.419 2.394-1.389c1.451 1.03.278 5.048-1.503 4.355-1.779-.695-.891-2.966-.891-2.966" fill="#e9ae96"/><path d="m45.493 31.611s.29 6.519.039 11.946c-.146 3.134-.463 6.762-.563 7.562-.25 2-.812 6.125-.812 6.125s.083 2.053.25 2.813c.5 2.223.915 6.345-2.73 7.025-3.096.579-2.196-4.352-1.083-8.167.186-.629-.247-4.394-.312-7.421-.081-3.55.232-4.384.125-8.312-.128-4.94-1.369-10.938-1.369-10.938z" class="fill-pink-lightest"/><path d="m44.022 23.385c-1.263-1.574-5.439-2.375-6.653.668-1.213 3.042-.02 13.203 1.262 13.734.831.346 2.884.61 4.408.397 1.86-.262 2.53-1.377 2.938-2.035.639-1.027.182-10.101-1.955-12.764" fill="#3a5683"/></g><g transform="translate(108)"><path d="m6.938 32.86s.251 3.084.418 4.834c.166 1.75-.501 6.25-.668 9.75-.166 3.5-.083 6.666 0 8.083.084 1.417-1.948 4.695-.166 6.667 2.334 2.583 4.5.582 4-2.834s.417-5.5.584-7.5c.166-2-.084-19.416-.084-19.416z" class="fill-pink-lightest"/><path d="m22.14 90.227c-9.498-1.05-18.967 1.73-21.147 6.205-2.18 4.478 3.75 8.956 13.25 10.002 9.496 1.05 18.967-1.728 21.147-6.205 2.179-4.479-3.752-8.954-13.25-10.002" fill="#77b4b2"/><path d="m22.21 96.476c-.783.577-6.088 1.897-5.566 4.87.521 2.97 10.931-.355 10.695-3.715-.174-2.476-4.348-1.733-5.129-1.155" fill="#2b2034"/><path d="m11.427 92.184c-.781.578-6.088 1.897-5.567 4.869.522 2.97 10.934-.356 10.698-3.715-.174-2.477-4.348-1.734-5.131-1.154" fill="#2b2034"/><path d="m8.644 56.441s1.779 36.126 3.39 36.897c1.613.771 4.436.247 4.436.247l2.043-36.884z" fill="#0a5e7b"/><path d="m18.513 56.701s2.865 39.457 4.478 40.599c1.613 1.143 4.436.248 4.436.248l1.689-40.567z" fill="#0a5e7b"/><path d="m21.657 20.224s7.992.685 8.254 6.999c.262 6.315.344 29.068.344 29.933 0 .868-3.055 4.709-12.391 4.21-8.89-.474-10.101-3.001-10.101-4.543 0-3.219.939-27.619 2.144-32.954.75-3.312 7.969-4.76 11.75-3.645" fill="#d53e55"/><path d="m15.845 16.025s.008 6.922.779 7.47c.77.548 5.004-.183 5.004-2.558 0-2.374-.053-5.525-.053-5.525z" fill="#c49684"/><path d="m14.575 20.77s-5.23-.352-6.588 3.139c-1.357 3.49-3.578 9.554-1.898 10.101 1.678.545 3.185 1.07 3.898.993.711-.076 4.91-10.196 4.588-14.233" fill="#d53e55"/><path d="m11.419 5.93s-.633 13.899 3.863 14.565c3.375.5 7.979-1.042 8.125-5.625.149-4.583 1.606-11.335-1.576-11.344-3.184-.006-10.779-.688-10.412 2.404" fill="#e9ae96"/><path d="m25.64 5.126s.256 4.645.175 6.72c-.08 2.076-2.462 4.275-3.279 3.458-.816-.818-.463-8.428-.463-8.428z" fill="#c38433"/><path d="m17.366.881s-4.701.015-6.377 2.904c-1.549 2.673-.771 5.709.397 5.512.439-.073 1.117-.281 1.978-.699.862-.418 2.5-1.563 2.5-1.563s-.25.813-.562 2.063c1.562-.313 3.625-1.938 4.062-2.875.133-.284 1.131 7.506 2.91 5.83 1.778-1.675 4.739-4.532 2.776-8.766-1.965-4.231-7.684-2.406-7.684-2.406" fill="#c38433"/><path d="m21.903 12.579s.946-2.419 2.395-1.389c1.451 1.03.277 5.048-1.502 4.355-1.779-.695-.893-2.966-.893-2.966" fill="#e9ae96"/><path d="m31.825 32.027s.291 6.519.039 11.946c-.144 3.134-.463 6.762-.562 7.562-.25 2-.813 6.125-.813 6.125s.084 2.053.25 2.813c.5 2.223.916 6.345-2.728 7.025-3.098.579-2.198-4.352-1.084-8.167.185-.629-.246-4.393-.313-7.421-.08-3.55.233-4.384.125-8.312-.127-4.94-1.369-10.938-1.369-10.938z" class="fill-pink-lightest"/><path d="m30.354 23.801c-1.261-1.574-5.437-2.375-6.652.668-1.213 3.042-.019 13.203 1.262 13.734.832.346 2.885.61 4.408.397 1.859-.262 2.529-1.377 2.938-2.035.638-1.027.181-10.101-1.956-12.764" fill="#d53e55"/></g><g transform="translate(151 26)"><path d="m21.914 87.983c-9.498-1.049-18.967 1.731-21.146 6.205-2.18 4.479 3.75 8.957 13.25 10.002 9.496 1.051 18.966-1.727 21.146-6.205s-3.752-8.953-13.25-10.002" fill="#77b4b2"/><path d="m14.063 91.585s-1.657 1.625-2.615 2.375-2.073 1.677-1.698 2.469 1.469 1.562 4.25 0c2.874-1.615 3.615-2.551 3.656-3.427.045-.939-.375-1.792-.375-1.792z" fill="#2b2034"/><path d="m11.656 54.96s0 7.5.625 14.75 1.625 22.625 1.625 22.625.167 1.042 1.917.542 1.5-2.166 1.5-2.916.73-11.287.417-12.917c-.417-2.167-1.001-3.917-.584-5.25s.917-16.083.917-16.083z" class="fill-pink-lightest"/><path d="m21.646 93.501s-1.656 1.625-2.615 2.375-2.073 1.677-1.698 2.469 1.469 1.562 4.25 0c2.874-1.615 3.614-2.551 3.656-3.427.044-.939-.375-1.792-.375-1.792z" fill="#2b2034"/><path d="m19.239 56.876s0 7.5.625 14.75 1.625 22.625 1.625 22.625.167 1.042 1.917.542 1.5-2.166 1.5-2.916.731-11.287.416-12.917c-.416-2.167-1-3.917-.583-5.25s.917-16.083.917-16.083z" class="fill-pink-lightest"/><path d="m7.631 31.284s.232 2.864.388 4.489c.155 1.625-.465 5.805-.621 9.056-.154 3.25-.076 6.192 0 7.508.079 1.315-1.809 4.359-.154 6.191 2.168 2.4 4.18.541 3.715-2.632-.463-3.172.389-5.108.543-6.965.154-1.858-.078-18.034-.078-18.034z" class="fill-pink-lightest"/><path d="m14.257 20.836s-3.085-.1-5.304 3.057c-2.067 2.939-2.319 8.957-1.68 9.837.64.88 3.235 1.114 3.919 1.04.683-.074 3.374-10.06 3.065-13.934" fill="#de7b2e"/><path d="m17.211 20.269c-2.52 0-5.239.32-6.039 2.639-.801 2.319-2.08 7.599-1.119 9.118.959 1.52 1.518 9.119 1.359 11.518-.16 2.399-3.279 16.717-3.359 21.116s0 5.278 0 5.278 1.926 2.631 8.557 3.04c9.119.56 12.878-3.239 13.677-5.079.801-1.84-1.68-15.477-2.639-19.316-.96-3.84-.919-10.958-1.08-14.157-.16-3.199 1.321-8.879-1.559-11.398-3.556-3.111-5.279-2.759-7.798-2.759" fill="#de7b2e"/><path d="m10.312 5.792s.059 5.519-.06 9.917c-.111 4.098-.801 6 .64 6.08 1.439.079 4.459-1.301 5.178-4.66.721-3.359-1.34-12.058-1.34-12.058z" fill="#6e564b"/><path d="m15.016 15.059s.494 6.643 1.234 7.17c.739.525 4.316-.177 4.316-2.457 0-2.277-.296-5.282-.296-5.282z" fill="#c49684"/><path d="m10.768 5.369s-.608 13.341 3.708 13.98c3.239.48 7.453-2.2 7.593-6.599.143-4.398 1.745-9.68-1.309-9.687-3.055-.007-10.346-.662-9.992 2.306" fill="#e9ae96"/><path d="m24.416 4.598c1.912 3.193 1.109 12.16 1.033 14.151-.078 1.993-4.336 5.344-5.119 4.56-.783-.786.664-17.032.664-17.032s1.51-4.873 3.422-1.679" fill="#6e564b"/><path d="m16.475.523s-4.512.014-6.12 2.788c-1.486 2.565-.74 5.479.379 5.29.424-.071 1.075-.27 1.901-.671.826-.402 2.399-1.5 2.399-1.5s-.239.78-.54 1.979c1.5-.3 3.48-1.859 3.9-2.759.127-.272 1.085 7.205 2.792 5.596 1.707-1.607 4.548-4.35 2.664-8.414-1.886-4.061-7.375-2.309-7.375-2.309" fill="#6e564b"/><path d="m29.369 32.326s.244 5.467.033 10.017c-.121 2.63-.388 5.672-.471 6.342-.21 1.678-.682 5.136-.682 5.136s.071 1.722.21 2.359c.419 1.865.768 5.322-2.289 5.891-2.596.487-1.842-3.649-.908-6.848.156-.528-.207-3.685-.262-6.223-.067-2.977.195-3.676.105-6.971-.107-4.142-1.148-9.172-1.148-9.172z" class="fill-pink-lightest"/><path d="m27.289 22.748c-1.212-1.511-4.113-1.96-5.279.96-1.164 2.92.527 12.127 1.759 12.638.797.331 1.897.366 3.36.161 1.784-.252 2.407-1.69 2.799-2.32.613-.987-.588-8.882-2.639-11.439" fill="#de7b2e"/></g><g transform="translate(338 17)"><path d="m14.365 88.829c9.498-1.05 18.967 1.731 21.147 6.205 2.179 4.479-3.75 8.956-13.25 10.002-9.496 1.051-18.967-1.727-21.147-6.205-2.179-4.478 3.752-8.953 13.25-10.002" fill="#77b4b2"/><path d="m22.217 92.431s1.656 1.625 2.614 2.375 2.073 1.676 1.698 2.468-1.468 1.563-4.25 0c-2.874-1.614-3.615-2.55-3.656-3.426-.045-.939.375-1.792.375-1.792z" fill="#4c3b60"/><path d="m24.623 55.806s0 7.5-.625 14.75-1.625 22.625-1.625 22.625-.167 1.042-1.917.542-1.5-2.166-1.5-2.916-.729-11.287-.417-12.917c.417-2.167 1.001-3.917.584-5.25s-.917-16.083-.917-16.083z" class="fill-pink-lightest"/><path d="m18.823 88.273c.075 1.34.133 2.323.133 2.534 0 .75-.25 2.416 1.5 2.916s1.917-.542 1.917-.542.127-1.952.318-4.787c-1.653.607-2.99.297-3.868-.121" fill="#a59383"/><path d="m14.634 94.347s1.655 1.625 2.614 2.375 2.073 1.676 1.698 2.468-1.468 1.563-4.25 0c-2.874-1.614-3.614-2.55-3.656-3.426-.044-.939.375-1.792.375-1.792z" fill="#4c3b60"/><path d="m17.04 57.722s0 7.5-.625 14.75-1.625 22.625-1.625 22.625-.167 1.042-1.917.542-1.5-2.166-1.5-2.916-.73-11.287-.416-12.917c.416-2.167 1-3.917.583-5.25s-.917-16.083-.917-16.083z" class="fill-pink-lightest"/><path d="m11.239 90.173c.076 1.348.134 2.338.134 2.55 0 .75-.25 2.416 1.5 2.916s1.917-.542 1.917-.542.126-1.929.315-4.737c-1.665.583-3.005.242-3.866-.187" fill="#a59383"/><path d="m28.648 32.13s-.232 2.864-.387 4.489c-.156 1.625.465 5.805.62 9.056.154 3.25.076 6.191 0 7.508-.078 1.315 1.809 4.359.154 6.191-2.168 2.399-4.18.541-3.715-2.632.463-3.173-.388-5.108-.543-6.966-.154-1.857.078-18.033.078-18.033z" class="fill-pink-lightest"/><path d="m22.022 21.682s3.085-.1 5.304 3.056c2.068 2.94 2.32 8.957 1.68 9.838-.64.88-3.235 1.113-3.919 1.039-.683-.073-3.374-10.059-3.065-13.933" fill="#78362b"/><path d="m19.068 21.114c2.52 0 5.24.321 6.039 2.64.801 2.318 2.081 7.599 1.12 9.118-.959 1.52-1.519 9.118-1.36 11.518.16 2.399 3.279 16.716 3.36 21.116.08 4.398 0 5.278 0 5.278s-1.927 2.631-8.558 3.039c-9.118.561-12.878-3.238-13.677-5.078-.801-1.841 1.68-15.477 2.639-19.316.96-3.84.92-10.958 1.08-14.158.16-3.199-1.32-8.878 1.56-11.397 3.555-3.111 5.278-2.76 7.797-2.76" fill="#78362b"/><path d="m25.968 6.638s.612 2.839.635 5.946c.009 1.358-.612 2.633-.576 3.971.034 1.232.886 3.058.951 3.904.149 1.965-.41 3.318-1.417 3.375-.706.039-1.976-2.034-3.5-2.292-1.584-.268-3.591.047-3.958-1.666-.721-3.359 3.446-13.959 3.446-13.959z" fill="#a54236"/><path d="m21.264 15.904s-.494 6.644-1.235 7.17c-.739.526-4.316-.177-4.316-2.456 0-2.277.297-5.282.297-5.282z" fill="#c49684"/><path d="m25.512 6.215s.607 13.341-3.708 13.979c-3.24.481-7.453-2.199-7.594-6.598-.143-4.399-1.745-9.68 1.31-9.688 3.054-.007 10.345-.661 9.992 2.307" fill="#e9ae96"/><path d="m12.311 4.167c-.519.867-1.335 3.612-1.597 5.332-.209 1.371-.727 2.988-.819 4.502-.093 1.523.241 2.944.223 4.25-.023 1.764-.913 3.83-.89 4.416.042 1.078 1.372-.441 2.833-.084.542.132 2.417 2.626 2.333 5.834-.026.996 2.715.411 2.917.209.477-.479-1.291-10.918-1-13.959.292-3.041.25-7.5.25-7.5s-2.338-6.193-4.25-3" fill="#a54236"/><path d="m19.805 1.369s4.511.014 6.119 2.787c1.486 2.566.74 5.48-.379 5.29-.212-.035-.775-.695-.775-.695s-1.129.325-1.542.125c-.827-.401-1.75-1.667-1.75-1.667s-.235 1.296-1.125 1.584c-.891.288-2.292-1.792-2.292-1.792s-.098 1.489-.541 3.083c-.471 1.691-1.547 2.837-2.426 2.008-1.707-1.608-4.549-4.351-2.664-8.414 1.885-4.061 7.375-2.309 7.375-2.309" fill="#a54236"/><path d="m6.91 33.172s-.244 5.467-.033 10.016c.121 2.63.389 5.672.472 6.342.21 1.679.681 5.137.681 5.137s-.071 1.722-.21 2.358c-.419 1.866-.767 5.323 2.289 5.892 2.596.486 1.842-3.649.909-6.849-.157-.527.207-3.684.261-6.222.068-2.977-.195-3.676-.105-6.971.107-4.143 1.148-9.172 1.148-9.172z" class="fill-pink-lightest"/><path d="m8.99 23.594c1.212-1.511 4.114-1.96 5.28.96 1.164 2.92-.528 12.127-1.759 12.637-.798.331-1.898.367-3.361.162-1.784-.252-2.407-1.69-2.798-2.321-.614-.986.587-8.882 2.638-11.438" fill="#78362b"/></g><g transform="translate(441 54)"><g transform="translate(29.701031)"><path d="m13.832 88.829c9.498-1.05 18.967 1.731 21.147 6.205 2.179 4.479-3.75 8.956-13.25 10.002-9.497 1.051-18.967-1.727-21.147-6.205s3.752-8.953 13.25-10.002" fill="#77b4b2"/><path d="m21.684 92.431s1.656 1.625 2.614 2.375 2.073 1.676 1.698 2.468-1.469 1.563-4.25 0c-2.874-1.614-3.615-2.55-3.656-3.426-.045-.939.375-1.792.375-1.792z" fill="#4c3b60"/><path d="m24.09 55.806s0 7.5-.625 14.75-1.625 22.625-1.625 22.625-.167 1.042-1.917.542-1.5-2.166-1.5-2.916-.73-11.287-.417-12.917c.417-2.167 1.001-3.917.584-5.25s-.917-16.083-.917-16.083z" class="fill-pink-lightest"/><path d="m18.289 88.273c.076 1.34.134 2.323.134 2.534 0 .75-.25 2.416 1.5 2.916s1.917-.542 1.917-.542.127-1.952.318-4.787c-1.654.607-2.99.297-3.869-.121" fill="#a59383"/><path d="m14.101 94.347s1.655 1.625 2.614 2.375 2.073 1.676 1.698 2.468-1.469 1.563-4.25 0c-2.874-1.614-3.614-2.55-3.656-3.426-.044-.939.375-1.792.375-1.792z" fill="#4c3b60"/><path d="m16.507 57.722s0 7.5-.625 14.75-1.625 22.625-1.625 22.625-.167 1.042-1.917.542-1.5-2.166-1.5-2.916-.731-11.287-.416-12.917c.416-2.167 1-3.917.583-5.25s-.917-16.083-.917-16.083z" class="fill-pink-lightest"/><path d="m10.705 90.173c.076 1.348.135 2.338.135 2.55 0 .75-.25 2.416 1.5 2.916s1.917-.542 1.917-.542.126-1.929.315-4.737c-1.665.583-3.006.242-3.867-.187" fill="#a59383"/><path d="m28.115 32.13s-.232 2.864-.387 4.489c-.156 1.625.464 5.805.62 9.056.154 3.25.076 6.191 0 7.508-.078 1.315 1.809 4.359.154 6.191-2.168 2.399-4.18.541-3.715-2.632.463-3.173-.389-5.108-.543-6.966-.154-1.857.078-18.033.078-18.033z" class="fill-pink-lightest"/><path d="m21.489 21.682s3.085-.1 5.304 3.056c2.067 2.94 2.319 8.957 1.68 9.838-.64.88-3.235 1.113-3.919 1.039-.683-.073-3.374-10.059-3.065-13.933" fill="#78362b"/><path d="m18.535 21.114c2.52 0 5.239.321 6.039 2.64.801 2.318 2.08 7.599 1.119 9.118-.959 1.52-1.518 9.118-1.359 11.518.16 2.399 3.279 16.716 3.359 21.116.08 4.398 0 5.278 0 5.278s-1.926 2.631-8.557 3.039c-9.118.561-12.878-3.238-13.677-5.078-.801-1.841 1.68-15.477 2.639-19.316.96-3.84.92-10.958 1.08-14.158.16-3.199-1.321-8.878 1.559-11.397 3.556-3.111 5.279-2.76 7.798-2.76" fill="#78362b"/><path d="m25.435 6.638s.612 2.839.634 5.946c.01 1.358-.611 2.633-.575 3.971.033 1.232.886 3.058.95 3.904.15 1.965-.409 3.318-1.417 3.375-.705.039-1.975-2.034-3.5-2.292-1.584-.268-3.59.047-3.958-1.666-.72-3.359 3.447-13.959 3.447-13.959z" fill="#a54236"/><path d="m20.73 15.904s-.494 6.644-1.234 7.17c-.739.526-4.316-.177-4.316-2.456 0-2.277.297-5.282.297-5.282z" fill="#c49684"/><path d="m24.979 6.215s.607 13.341-3.708 13.979c-3.24.481-7.454-2.199-7.594-6.598-.143-4.399-1.745-9.68 1.309-9.688 3.055-.007 10.346-.661 9.993 2.307" fill="#e9ae96"/><path d="m11.777 4.167c-.517.867-1.335 3.612-1.596 5.332-.209 1.371-.727 2.988-.82 4.502-.092 1.523.242 2.944.224 4.25-.022 1.764-.913 3.83-.891 4.416.042 1.078 1.372-.441 2.833-.084.543.132 2.417 2.626 2.334 5.834-.026.996 2.715.411 2.916.209.478-.479-1.291-10.918-1-13.959.292-3.041.25-7.5.25-7.5s-2.338-6.193-4.25-3" fill="#a54236"/><path d="m19.271 1.369s4.512.014 6.12 2.787c1.486 2.566.74 5.48-.379 5.29-.212-.035-.776-.695-.776-.695s-1.129.325-1.542.125c-.826-.401-1.75-1.667-1.75-1.667s-.234 1.296-1.125 1.584c-.89.288-2.292-1.792-2.292-1.792s-.097 1.489-.541 3.083c-.47 1.691-1.547 2.837-2.425 2.008-1.707-1.608-4.549-4.351-2.665-8.414 1.886-4.061 7.375-2.309 7.375-2.309" fill="#a54236"/><path d="m6.377 33.172s-.244 5.467-.033 10.016c.121 2.63.388 5.672.471 6.342.21 1.679.682 5.137.682 5.137s-.071 1.722-.21 2.358c-.419 1.866-.767 5.323 2.289 5.892 2.596.486 1.842-3.649.908-6.849-.156-.527.207-3.684.262-6.222.067-2.977-.195-3.676-.105-6.971.107-4.143 1.148-9.172 1.148-9.172z" class="fill-pink-lightest"/><path d="m8.457 23.594c1.212-1.511 4.113-1.96 5.279.96 1.164 2.92-.527 12.127-1.758 12.637-.798.331-1.898.367-3.361.162-1.784-.252-2.407-1.69-2.799-2.321-.613-.986.588-8.882 2.639-11.438" fill="#78362b"/></g><path d="m79.4021203 123.221368c9.498-1.049 18.967 1.731 21.1469997 6.205 2.179 4.479-3.7499997 8.957-13.2499997 10.002-9.497 1.051-18.967-1.727-21.147-6.205s3.752-8.953 13.25-10.002" fill="#77b4b2"/><path d="m77.8340501 128.572699c.783.577 6.086 1.897 5.565 4.87-.522 2.971-10.932-.355-10.694-3.715.172-2.476 4.346-1.732 5.129-1.155" fill="#724141"/><path d="m88.8350167 124.574292c.782.578 6.088 1.897 5.565 4.869-.522 2.971-10.932-.356-10.695-3.715.173-2.477 4.347-1.733 5.13-1.154" fill="#724141"/><path d="m97.5700312 92s-2.351 35.444-3.39 36.897c-1.081 1.509-3.415 1.109-4.436.247-1.02-.863-2.043-36.884-2.043-36.884z" fill="#17a399"/><path d="m87.3050312 92s-2.865 39.457-4.479 40.599c-1.613 1.143-3.246.948-4.435.248-1.188-.701-1.69-40.567-1.69-40.567z" fill="#17a399"/><path d="m84.3641754 55.4631204s-6 1-7.753 6.833c-1.823 6.053-.344 29.069-.344 29.934 0 .868 3.055 4.709 12.39 4.21 8.891-.475 10.102-3.001 10.102-4.543 0-1.253-1.213-5.057-.561-10.268 1-8 1.43-18.261.395-21.437-1.697-5.198-10.447-5.843-14.229-4.729" fill="#f4bb7b"/><path d="m84.820538 51.803s-.447 4.669.388 5.114c2.5 1.333 5.395-.203 5.395-.203l.439-5.714z" fill="#c49684"/><path d="m82.059885 41.0627788s-3.57 12.608.863 13.615c3.327.757 9.168-.692 9.666-5.25.499-4.558 3.209-9.712.036-9.964-3.172-.25-10.694-1.511-10.565 1.599" fill="#e9ae96"/><path d="m81.9233096 68.659s-.44 6.51-1.293 11.876c-.494 3.098-1.215 6.669-1.402 7.452-.471 1.96-1.491 5.997-1.491 5.997s-.146 2.049-.064 2.822c.248 2.266.92 6.05-2.776 6.319-3.142.231-2.418-4.21-.886-7.878.254-.604.244-4.394.515-7.41.317-3.536.721-4.33 1.053-8.247.422-4.922.818-11.59.818-11.59z" class="fill-pink-lightest"/><path d="m76.9222824 60.3981026c1.264-1.575 5.44-2.375 6.655.668 1.212 3.042.019 13.203-1.264 13.734-.83.346-2.883.61-4.406.396-1.862-.261-2.532-1.377-2.94-2.034-.639-1.027-.181-10.101 1.955-12.764" fill="#d15643"/><path d="m80.9962366 42.4385051s1.166 1.75 2.166 2.5.334 2.916.418 3.583c.082.667 3.084.833 3.084 2.249 0 1.417-.94 2.396 3.228 2.729 1.785.143 4.667-3 5.25-3.833s1.623-3.196 1.75-5.083c.418-6.167-3.396-8.312-6.98-8.562-3.582-.25-10.75 1.667-8.916 6.417" fill="#a36634"/><path d="m84.0227922 48.5141194s1.127-2.34 2.495-1.202c1.367 1.137-.11 5.054-1.832 4.227-1.721-.83-.663-3.025-.663-3.025" fill="#e9ae96"/><g transform="translate(0 39)"><path d="m1.41 30.764s.227 6.521.904 11.912c.393 3.112.995 6.705 1.159 7.493.406 1.975 1.291 6.043 1.291 6.043s.082 2.053-.026 2.823c-.322 2.256-1.119 6.016 2.567 6.406 3.133.333 2.554-4.129 1.144-7.845-.234-.612-.101-4.4-.275-7.422-.199-3.545-.576-4.352-.781-8.278-.262-4.932-.44-11.61-.44-11.61z" class="fill-pink-lightest"/><path d="m23.275 86.629c-9.498-1.05-18.966 1.73-21.146 6.205-2.18 4.479 3.75 8.956 13.25 10.002 9.496 1.051 18.967-1.728 21.146-6.205 2.18-4.479-3.752-8.953-13.25-10.002" fill="#77b4b2"/><path d="m23.365 93.281c-.783.577-6.086 1.898-5.564 4.87.521 2.971 10.931-.354 10.693-3.714-.172-2.476-4.346-1.733-5.129-1.156" fill="#40404c"/><path d="m12.582 88.989c-.781.578-6.088 1.898-5.564 4.869.521 2.971 10.931-.355 10.695-3.714-.174-2.477-4.348-1.734-5.131-1.155" fill="#40404c"/><path d="m4.154 56.219s2.352 35.443 3.391 36.896c1.08 1.51 3.414 1.11 4.435.247 1.02-.862 2.043-36.883 2.043-36.883z" fill="#4e6895"/><path d="m14.023 56.479s2.866 39.457 4.479 40.598c1.613 1.144 3.246.948 4.436.248 1.187-.7 1.689-40.566 1.689-40.566z" fill="#4e6895"/><path d="m17.668 20.167s6 1 7.754 6.833c1.822 6.053.344 29.068.344 29.934 0 .868-3.055 4.709-12.391 4.21-8.891-.475-10.102-3.001-10.102-4.543 0-1.253 1.213-5.057.561-10.268-1-8-1.867-18.49-.832-21.666 1.697-5.198 10.885-5.614 14.666-4.5" fill="#83488b"/><path d="m17.139 15.803s.447 4.669-.389 5.114c-2.5 1.333-5.395-.203-5.395-.203l-.439-5.714z" fill="#c49684"/><path d="m9.668 20.964s-5.23-.352-6.588 3.14c-1.357 3.49-3.578 9.553-1.898 10.1 1.679.545 3.185 1.07 3.898.993.713-.076 4.91-10.196 4.588-14.233" fill="#83488b"/><path d="m19.947 5.219s3.571 12.607-.863 13.615c-3.326.757-9.168-.692-9.666-5.25-.498-4.559-3.209-9.713-.035-9.965 3.172-.25 10.693-1.511 10.564 1.6" fill="#e9ae96"/><path d="m19.975 32.533s.439 6.511 1.293 11.876c.494 3.099 1.214 6.669 1.402 7.452.471 1.96 1.49 5.997 1.49 5.997s.147 2.049.065 2.823c-.248 2.265-.92 6.049 2.775 6.319 3.143.23 2.418-4.211.887-7.879-.254-.603-.244-4.393-.516-7.409-.316-3.536-.721-4.33-1.053-8.247-.422-4.922-.818-11.59-.818-11.59z" class="fill-pink-lightest"/><path d="m24.533 24.495c-1.263-1.574-5.439-2.375-6.654.668-1.213 3.042-.02 13.203 1.264 13.734.83.346 2.882.611 4.406.397 1.861-.262 2.531-1.377 2.939-2.034.639-1.028.182-10.102-1.955-12.765" fill="#83488b"/><path d="m21.168 6.751s-1.166 1.75-2.166 2.5-.334 2.916-.418 3.583c-.082.667-3.084.832-3.084 2.249s2.002 3.918-2.166 4.251c-1.785.143-5.342-.856-5.666-3.083s-2.229-3.956-2.416-6.75c-.418-6.166 3.416-8.917 7-9.167 3.582-.25 10.75 1.667 8.916 6.417" fill="#b98034"/><path d="m17.502 12.484s-1.127-2.339-2.494-1.202c-1.367 1.138.109 5.055 1.832 4.228 1.721-.83.662-3.026.662-3.026" fill="#e9ae96"/></g></g><g transform="translate(231 35)"><path d="m13.86 90.542c9.498-1.049 18.967 1.73 21.146 6.205 2.18 4.478-3.75 8.957-13.25 10.002-9.496 1.05-18.966-1.727-21.146-6.206-2.18-4.478 3.752-8.953 13.25-10.001" fill="#77b4b2"/><path d="m21.711 94.143s1.657 1.625 2.615 2.375 2.073 1.678 1.698 2.469c-.375.793-1.469 1.562-4.25 0-2.874-1.613-3.615-2.551-3.656-3.426-.045-.939.375-1.793.375-1.793z" fill="#e9ba83"/><path d="m24.118 57.518s0 7.5-.625 14.751c-.625 7.25-1.625 22.624-1.625 22.624s-.167 1.043-1.917.543-1.5-2.166-1.5-2.916-.73-11.288-.417-12.917c.417-2.168 1.001-3.918.584-5.25-.417-1.334-.917-16.083-.917-16.083z" fill="#513931"/><path d="m14.128 96.059s1.656 1.625 2.615 2.375 2.073 1.678 1.698 2.469c-.375.793-1.469 1.562-4.25 0-2.874-1.613-3.614-2.551-3.656-3.426-.044-.939.375-1.793.375-1.793z" fill="#e9ba83"/><path d="m16.535 59.434s0 7.5-.625 14.751c-.625 7.25-1.625 22.624-1.625 22.624s-.167 1.043-1.917.543-1.5-2.166-1.5-2.916-.731-11.287-.416-12.917c.416-2.168 1-3.918.583-5.25-.417-1.334-.917-16.083-.917-16.083z" fill="#513931"/><path d="m21.517 23.395s3.085-.1 5.304 3.056c2.067 2.94 2.319 8.957 1.679 9.838-.639.88-3.234 1.113-3.919 1.039-.682-.073-3.373-10.059-3.064-13.933" fill="#506289"/><path d="m18.563 22.827c2.519 0 5.239.32 6.039 2.64.801 2.318 2.08 7.598 1.119 9.118-.959 1.519-1.518 9.119-1.359 11.517.16 2.4 1.535 10.331 1.615 14.731.081 4.398-.75 7.084-.75 7.084s-.666 2.25-7.416 2.25c-9.135 0-9.535-2.576-10.334-4.417-.8-1.84-.31-10.769.648-14.609.96-3.84.92-10.957 1.081-14.157.16-3.199-1.321-8.879 1.559-11.397 3.556-3.111 5.278-2.76 7.798-2.76" fill="#506289"/><path d="m20.758 17.617s-.494 6.644-1.234 7.17c-.739.526-4.316-.177-4.316-2.456 0-2.277.296-5.282.296-5.282z" fill="#c49684"/><path d="m25.006 7.928s.608 13.341-3.708 13.979c-3.239.481-7.453-2.199-7.593-6.598-.143-4.399-1.746-9.68 1.309-9.688 3.055-.007 10.346-.661 9.992 2.307" fill="#e9ae96"/><g fill="#b84a4f"><path d="m19.299 3.082s4.512.014 6.119 2.787c1.487 2.566.746 5.131-.378 5.29-1.259.178-8.632 1.803-10.339.194-1.707-1.607-4.661-1.899-2.777-5.962 1.886-4.061 7.375-2.309 7.375-2.309"/><path d="m14.852 3.75s-1.687-5.562-6-2.937c-4.017 2.444-1.74 5.738-.062 6.937 2.187 1.563 4.187.938 4.875.5.687-.437 1.187-4.5 1.187-4.5"/><path d="m11.352 8s-.687 5.188.938 7.188 3.375.312 3.312-.563c-.062-.875 0-2.562-.187-4.312-.188-1.75-3.813-3.438-4.063-2.313"/></g><path d="m15.667 14.686s-2.235-2.689-2.75-.796c-.513 1.892 1.011 3.416 1.975 3.15.963-.267.775-2.354.775-2.354" fill="#e9ae96"/><path d="m17.701 39.883 19.812-11.48v20.814l-19.812 11.45z" fill="#d7d7d7"/><path d="m37.195 38.979s-2.5.563-3.313 1.875c-.812 1.313.813 3.25 1.875 3.313 1.063.062 2.625-.625 2.688-1.813.062-1.187-.188-3.562-1.25-3.375" class="fill-pink-lightest"/><path d="m5.4 38.151s-1.203 7.031-.711 7.996c.493.965 3.845 3.209 6.512 4.172 2.667.961 4.757 1.176 5.793 1.596 1.036.419 2.423 1.062 3.853.115 1.431-.947 2.815-3.563 1.234-4.526-1.579-.962-3.132-.507-4.173.077-1.04.582-1.664.336-2.498.109-.806-.217-3.022-2.481-5.707-3.691l1.31-4.617z" class="fill-pink-lightest"/><path d="m8.429 26.419c1.309-1.428 4.234-1.687 5.205 1.304.971 2.99-1.32 12.066-2.583 12.494-.817.28-1.917.242-3.364-.058-1.764-.369-2.291-1.845-2.641-2.5-.546-1.024 1.17-8.824 3.383-11.24" fill="#506289"/></g><g transform="translate(76 51)"><path d="m1 30.478s.227 6.521.905 11.912c.392 3.112.994 6.705 1.158 7.493.406 1.975 1.291 6.043 1.291 6.043s.082 2.053-.026 2.823c-.322 2.256-1.119 6.016 2.567 6.406 3.133.333 2.555-4.129 1.144-7.845-.234-.612-.101-4.4-.275-7.422-.199-3.545-.576-4.352-.781-8.277-.262-4.933-.44-11.611-.44-11.611z" class="fill-pink-lightest"/><path d="m22.5981901 86.2217348c-9.498-1.05-18.96700001 1.73-21.14700001 6.205-2.18 4.479 3.75 8.9560002 13.25000001 10.0020002 9.496 1.051 18.967-1.728 21.147-6.2050002 2.179-4.479-3.752-8.953-13.25-10.002" fill="#77b4b2"/><path d="m22.5999475 93.5722517c-.783.577-6.085 1.898-5.564 4.87.521 2.9710003 10.932-.354 10.693-3.714-.172-2.476-4.345-1.733-5.129-1.156" fill="#40404c"/><path d="m12.6003175 88.5738447c-.781.578-6.08800003 1.898-5.56400003 4.869.521 2.971 10.93100003-.355 10.69500003-3.714-.174-2.477-4.348-1.734-5.131-1.155" fill="#40404c"/><path d="m4 56s2.351 35.443 3.39 36.896c1.08 1.51 3.414 1.11 4.436.247 1.019-.862 2.043-36.883 2.043-36.883z" fill="#4e6895"/><path d="m14 56s2.865 39.457 4.478 40.598c1.613 1.144 3.246.948 4.436.248 1.187-.7 1.689-40.566 1.689-40.566z" fill="#4e6895"/><path d="m17.1332729 19.5045176s6 1 7.754 6.833c1.822 6.053.344 29.068.344 29.934 0 .868-3.055 4.709-12.391 4.21-8.88999999-.475-10.10099999-3.001-10.10099999-4.543 0-1.253 1.213-5.057.56-10.268-1-8-1.867-18.49-.832-21.666 1.697-5.198 10.88499999-5.614 14.66599999-4.5" fill="#fbe0c0"/><path d="m16.223 15.803s.447 4.669-.389 5.114c-2.5 1.333-5.394-.203-5.394-.203l-.44-5.714z" fill="#c49684"/><path d="m9.08922271 21.0099087s-5.23-.352-6.588 3.14c-1.357 3.49-3.578 9.553-1.898 10.1 1.68.545 3.185 1.07 3.898.993.713-.076 4.91-10.196 4.588-14.233" fill="#fbe0c0"/><path d="m19.0816996 5.06367255s3.571 12.60699995-.863 13.61499995c-3.326.757-9.16800002-.692-9.66600002-5.25-.498-4.55899995-3.209-9.71299995-.035-9.96499995 3.17200002-.25 10.69300002-1.511 10.56400002 1.6" fill="#e9ae96"/><path d="m19 32.658s.439 6.511 1.293 11.876c.494 3.099 1.215 6.669 1.402 7.452.471 1.96 1.49 5.997 1.49 5.997s.147 2.049.065 2.823c-.248 2.265-.92 6.05 2.775 6.319 3.143.231 2.418-4.211.887-7.879-.254-.603-.244-4.393-.516-7.409-.316-3.536-.72-4.33-1.052-8.247-.422-4.922-.819-11.59-.819-11.59z" class="fill-pink-lightest"/><path d="m24.1586188 24.397733c-1.263-1.574-5.439-2.375-6.654.668-1.213 3.042-.019 13.203 1.264 13.735.83.345 2.883.61 4.406.396 1.861-.262 2.531-1.377 2.939-2.034.639-1.028.182-10.102-1.955-12.765" fill="#fbe0c0"/><path d="m20.9473758 6.43850513s-1.166 1.75-2.166 2.5-.334 2.91599997-.418 3.58299997c-.082.667-3.084.832-3.084 2.249s2.002 3.918-2.166 4.251c-1.785.143-5.34199999-.856-5.66599999-3.083s-2.228-3.956-2.416-6.74999997c-.418-6.166 3.416-8.917 6.99999999-9.167 3.582-.25 10.75 1.667 8.916 6.417" fill="#81462f"/><path d="m17.0307581 12.5137398s-1.127-2.339-2.494-1.202c-1.367 1.138.109 5.055 1.832 4.228 1.721-.83.662-3.026.662-3.026" fill="#e9ae96"/></g><g transform="translate(0 15)"><path d="m29.53 32.834s1.248 11.111 1.414 14.611.084 6.666 0 8.082c-.084 1.418 1.95 4.696.166 6.668-2.334 2.582-4.5.582-4-2.834s-.416-5.5-.584-7.5c-.166-2 .084-19.416.084-19.416z" class="fill-pink-lightest"/><path d="m14.244 90.227c9.498-1.049 18.966 1.73 21.146 6.205 2.18 4.478-3.75 8.957-13.249 10.002-9.497 1.05-18.967-1.727-21.147-6.205-2.18-4.479 3.751-8.954 13.25-10.002" fill="#77b4b2"/><path d="m14.174 96.477c.783.576 6.087 1.896 5.565 4.869-.521 2.97-10.931-.354-10.694-3.715.173-2.475 4.347-1.733 5.129-1.154" fill="#915c33"/><path d="m17.108 91.765c.645.727 5.562 3.119 4.434 5.918-1.126 2.797-10.621-2.617-9.692-5.853.683-2.387 4.612-.795 5.258-.065" fill="#5c3c26"/><path d="m26.072 56.834s1.197 9.447-1.417 18.5c-2.461 8.527-7.539 17.23-8.382 17.434-1.738.42-4.389-.678-4.389-.678l5.271-18.256.382-18.25z" fill="#5c6a39"/><path d="m17.871 56.701s-2.866 39.457-4.479 40.6c-1.613 1.142-4.435.248-4.435.248l-1.69-40.567z" fill="#7b964a"/><path d="m13.864 20.168s-7.131.742-7.392 7.055c-.261 6.316-.344 29.068-.344 29.933 0 .869 3.056 4.709 12.392 4.211 8.889-.474 9.135-3.242 9.135-4.783 0-3.221-.679-26.676-2.375-31.875-1.697-5.199-7.635-5.656-11.416-4.541" fill="#2e696b"/><path d="m20.538 16.025s-.008 6.922-.779 7.471c-.77.547-5.004-.183-5.004-2.558 0-2.374.053-5.526.053-5.526z" fill="#c49684"/><path d="m22.226 21.188s5.23-.352 6.587 3.138c1.358 3.49 3.579 9.555 1.899 10.102-1.679.545-3.186 1.07-3.899.992-.711-.076-4.91-10.195-4.587-14.232" fill="#2e696b"/><path d="m24.964 5.93s.633 13.9-3.863 14.566c-3.375.5-7.979-1.043-8.125-5.625-.149-4.584-1.606-11.336 1.577-11.344 3.182-.007 10.779-.689 10.411 2.403" fill="#e9ae96"/><path d="m10.744 5.127s-.256 4.644-.177 6.719c.081 2.076 2.464 4.275 3.281 3.459.816-.819.462-8.428.462-8.428z" fill="#c69233"/><path d="m19.018.881s4.575.015 6.2 3.015c.427.788.261 1.723-.157 2.063-.477.389-1.25.125-1.25.125s-1 .833-2.125 1-3.25-.792-3.25-.792-1.702 2.198-2.656 1.854c0 0 .108 5.584-1.671 3.907-1.778-1.674-4.738-4.532-2.775-8.766 1.965-4.23 7.684-2.406 7.684-2.406" fill="#c69233"/><path d="m14.479 12.58s-.944-2.42-2.394-1.389c-1.45 1.03-.277 5.047 1.503 4.354 1.779-.695.891-2.965.891-2.965" fill="#e9ae96"/><path d="m4.079 30.604s-1.783 5.308-2.084 10.732c-.172 3.133.815 14.903.815 14.903s-.29 2.034-.534 2.773c-.722 2.162-1.553 6.22 2.004 7.265 3.022.891 2.625-4.106 1.905-8.014-.122-.645.442-12.883.947-16.781.629-4.901 3.305-9.595 3.305-9.595z" class="fill-pink-lightest"/><path d="m7.2 22.51c1.539-1.305 5.791-1.297 6.404 1.922.612 3.217-2.495 12.965-3.855 13.243-.881.18-2.947.05-4.402-.45-1.776-.612-2.221-1.833-2.496-2.557-.432-1.13 1.744-9.951 4.349-12.158" fill="#2e696b"/><path d="m18.894 15.751c-.25.333-.541 1.292-.041 1.25s1.209-.458 1.625-.458.833.208 1.083.208.501-.124.667-.458.624.209.666-.125.083-1.125-.125-1.25-.459-.291-.875-.125-.375.5-1.166.25c-.215-.068-.417-.251-.917-.084s-.667.459-.917.792" fill="#c69233"/></g><g transform="translate(274 86)"><path d="m29.165 31.75s-.125 8.438-.562 10.063c-.438 1.625-2.063 4.062-2.063 4.062l-.187-13.5z" class="fill-pink-lightest"/><path d="m14.365 84.912c9.498-1.05 18.967 1.731 21.147 6.205 2.179 4.479-3.75 8.956-13.25 10.002-9.496 1.051-18.967-1.727-21.147-6.205-2.179-4.478 3.752-8.953 13.25-10.002" fill="#77b4b2"/><path d="m22.865 89.761s2.261.514 3.402 1.128c.666.357.438 1.302.372 1.891-.097.871-1.073 2.103-3.978.784-3.003-1.361-4.181-1.793-4.297-2.663-.125-.93.181-2.005 1.005-2.157 1.049-.195 3.496 1.017 3.496 1.017" fill="#4c3b60"/><path d="m19.656 55.094s.329 7.492 1.273 14.709c.943 7.215 2.512 21.79 2.512 21.79s.478 1.241 2.134.484c1.111-.508.684-1.711.792-2.452.21-1.439.722-11.121.336-12.736-.51-2.147-1.171-3.868-.813-5.219s.21-16.108.21-16.108z" class="fill-pink-lightest"/><path d="m16.115 92.595s2.261.514 3.402 1.128c.666.357.438 1.302.372 1.891-.097.871-1.073 2.103-3.978.784-3.003-1.361-4.181-1.793-4.297-2.663-.125-.93.181-2.005 1.005-2.157 1.049-.195 3.496 1.017 3.496 1.017" fill="#4c3b60"/><path d="m12.906 57.928s.329 7.492 1.273 14.709c.943 7.215 2.512 21.79 2.512 21.79s.478 1.241 2.134.484c1.111-.508.684-1.711.792-2.452.21-1.439.722-11.121.336-12.736-.51-2.147-1.171-3.869-.813-5.219.358-1.351.21-16.108.21-16.108z" class="fill-pink-lightest"/><path d="m21.55 18.828c2.519-.049 6.147 1.821 6.992 4.125.846 2.302-.943 16.637-.737 19.032.207 2.396 3.34 15.774 3.507 20.171.166 4.396.103 5.278.103 5.278s-1.608 3.544-8.23 4.082c-9.105.739-12.819-2.483-13.654-4.307-.836-1.824 1.256-16.01 2.139-19.867.885-3.858 1.63-11.088.803-14.176-.829-3.094-1.494-8.851 1.335-11.426 3.494-3.18 5.223-2.862 7.742-2.912" fill="#c46482"/><path d="m18.007 33.375s-.847 5.406-1.957 9.823c-.641 2.554-1.508 5.482-1.722 6.122-.539 1.604-1.688 4.9-1.688 4.9s-.273 1.701-.263 2.352c.04 1.911-.305 5.369-3.414 5.32-2.641-.039-1.08-3.943.47-6.892.258-.486.529-3.653.98-6.151.525-2.931.921-3.565 1.488-6.811.718-4.081.696-9.218.696-9.218z" class="fill-pink-lightest"/><path d="m17.871 23.574c-.888-1.72-3.642-2.738-5.365-.108-1.72 2.631-1.892 11.99-.786 12.735.716.484 1.787.737 3.261.826 1.799.108 2.904-.861 3.413-1.401.797-.846.979-9.138-.523-12.052" fill="#5a82a3"/><path d="m24.811 20.001s3.959.749 4.5 3.416c.542 2.667.292 8.084.167 8.584s-.959.916-1.875.958c-.917.042-2.792-12.958-2.792-12.958" fill="#5a82a3"/><path d="m13.061 8.501s-.759 7.835 2.167 8.5c3.667.833 6.167-1.334 6.167-1.334s1.666-9.333-1.834-10.333-6 .501-6.5 3.167" fill="#e9ae96"/><path d="m14.395 2.668s-2 1.833-2 4.833 1.5 3.666 3 3.5.833 2.5.833 3.5c0 .625-1.538 1.83-2.438 4.187-.54 1.413-.688 2.613-.729 3.229-.115 1.739.771-.709 2.604.458 1.834 1.167 2.23 7.71 2.73 9.376s.167 2.834 3 2 2.333-.334 3.5-.167c1.166.167 3.667.999 3.5-1.667s-.5-11-.5-13.333 3.833-13.917-1.5-16.583c-4.631-2.314-10.333-2.5-12 .667" fill="#e88048"/></g><g transform="translate(204 94)"><path d="m7 32s.125 8.437.562 10.062c.438 1.625 2.063 4.063 2.063 4.063l.187-13.5z" class="fill-pink-lightest"/><path d="m10.8337162 20s-3.95899995.749-4.49999995 3.416-.291 8.084-.166 8.584.958.916 1.875.958c.916.042 2.79099995-12.958 2.79099995-12.958" fill="#a5705f"/><path d="m21.5978797 85.2217348c-9.498-1.05-18.96700003 1.73-21.14700003 6.205-2.179 4.478 3.75 8.9560002 13.25000003 10.0020002 9.496 1.051 18.967-1.7280002 21.147-6.2050002 2.179-4.479-3.752-8.953-13.25-10.002" fill="#77b4b2"/><path d="m12.8647976 90.0374454s-2.26.515-3.40099999 1.128c-.667.358-.438 1.303-.373 1.892.098.871 1.07399999 2.102 3.97899999.784 3.002-1.361 4.18-1.793 4.297-2.663.125-.931-.182-2.005-1.005-2.157-1.05-.196-3.497 1.016-3.497 1.016" fill="#c6624b"/><path d="m16.1864622 55s-.328 7.493-1.272 14.709c-.943 7.215-2.513 21.79-2.513 21.79s-.478 1.242-2.133.485c-1.11199998-.508-.68399998-1.711-.79199998-2.452-.21-1.44-.722-11.121-.337-12.737.511-2.146 1.17199998-3.868.813-5.218-.358-1.351-.21-16.109-.21-16.109z" class="fill-pink-lightest"/><path d="m19.8647976 93.0374454s-2.26.515-3.401 1.128c-.667.358-.438 1.303-.373 1.892.098.871 1.074 2.102 3.979.784 3.002-1.361 4.18-1.793 4.297-2.663.125-.931-.182-2.005-1.005-2.157-1.05-.196-3.497 1.016-3.497 1.016" fill="#c6624b"/><path d="m23.1864622 58s-.328 7.493-1.272 14.709c-.943 7.215-2.513 21.79-2.513 21.79s-.478 1.242-2.133.485c-1.112-.508-.684-1.711-.792-2.452-.21-1.44-.722-11.121-.337-12.737.511-2.146 1.172-3.868.813-5.218-.358-1.351-.21-16.109-.21-16.109z" class="fill-pink-lightest"/><path d="m14.8760491 19.0009415c-2.518-.049-6.14599996 1.821-6.99099996 4.125-.847 2.302.943 16.637.736 19.032-.207 2.396-3.34 15.773-3.506 20.171-.167 4.395-.103 5.277-.103 5.277s1.607 3.544 8.22899996 4.082c9.106.74 12.82-2.482 13.654-4.306.837-1.825-1.256-16.01-2.139-19.868-.885-3.857-1.629-11.087-.803-14.175.83-3.094 1.494-8.851-1.335-11.426-3.494-3.181-5.223-2.862-7.742-2.912" fill="#4dad86"/><path d="m18 33.555s.847 5.406 1.957 9.823c.642 2.554 1.508 5.481 1.722 6.122.54 1.603 1.689 4.899 1.689 4.899s.272 1.702.262 2.353c-.039 1.911.305 5.369 3.414 5.319 2.641-.039 1.08-3.942-.47-6.891-.258-.487-.529-3.654-.979-6.152-.525-2.93-.922-3.564-1.488-6.81-.718-4.081-.697-9.218-.697-9.218z" class="fill-pink-lightest"/><path d="m18.1280218 23.7123258c.889-1.721 3.642-2.738 5.365-.109 1.721 2.631 1.893 11.991.787 12.736-.717.483-1.787.736-3.261.826-1.799.107-2.905-.861-3.414-1.401-.796-.846-.979-9.138.523-12.052" fill="#a5705f"/><path d="m22.7302682 8.4785148s.759 7.835-2.166 8.5c-3.668.833-6.168-1.334-6.168-1.334s-1.666-9.333 1.834-10.333 6 .501 6.5 3.167" fill="#e9ae96"/><path d="m21.8330811 2.39323615s2 1.833 2 4.833c0 2.99999995-1.5 3.66599995-3 3.49999995s-.832 2.5-.832 3.5c0 .625 1.538 1.83 2.438 4.186.54 1.413.687 2.613.728 3.23.116 1.739-.77-.709-2.603.458-1.834 1.167-2.482 3.319-5.316 2.485-2.832-.834-2.333-.333-3.5-.166-1.166.166-3.66600003.999-3.50000003-1.667.168-2.667.085-2.11.085-4.443s-3.833-13.91699995 1.5-16.58299995c4.63100003-2.315 10.33400003-2.5 12.00000003.667" fill="#36556f"/><path d="m22.1520135 92.2095326s1.947-3.592 3.889-3.176 1.418 4.75.513 5.75c-.904 1-3.086 2.17-3.571 2.25-.485.081-1.329-3.897-.831-4.824" class="fill-pink-lightest"/></g></g></svg>